<?xml version="1.0" standalone="no"?>
<!DOCTYPE svg PUBLIC "-//W3C//DTD SVG 20010904//EN"
 "http://www.w3.org/TR/2001/REC-SVG-20010904/DTD/svg10.dtd">
<svg version="1.0" xmlns="http://www.w3.org/2000/svg"
 width="1024.000000pt" height="1024.000000pt" viewBox="0 0 1024.000000 1024.000000"
 preserveAspectRatio="xMidYMid meet">

<g transform="translate(0.000000,1024.000000) scale(0.100000,-0.100000)"
fill="#000000" stroke="none">
<path d="M0 5120 l0 -5120 1830 0 c1823 0 1830 0 1830 20 0 12 7 20 16 20 9 0
18 -9 21 -20 5 -19 13 -20 257 -19 138 1 243 3 234 6 -10 2 -18 8 -18 13 0 11
35 31 42 24 3 -2 11 3 18 11 19 22 24 101 10 136 -12 28 -11 31 37 77 32 29
53 59 58 80 7 33 25 45 25 16 0 -8 4 -13 10 -9 5 3 7 12 3 20 -3 8 0 15 6 15
7 0 14 -6 17 -14 3 -8 19 -20 36 -27 17 -7 46 -29 64 -48 30 -32 33 -34 34
-15 0 19 18 35 42 38 16 2 19 16 8 35 -11 22 -35 19 -26 -4 3 -9 -12 -7 -55 6
-32 10 -66 16 -76 12 -12 -5 -15 -2 -10 10 3 8 -1 21 -8 27 -20 17 -8 32 14
20 10 -5 22 -6 27 -2 5 4 2 -1 -5 -11 -8 -9 -11 -20 -8 -24 4 -3 12 6 18 21
10 20 17 25 33 20 12 -4 23 -11 24 -15 4 -11 22 -12 22 -1 0 4 -13 21 -28 37
-16 17 -36 42 -46 58 -18 27 -28 34 -121 81 -27 14 -63 37 -80 51 -27 23 -28
25 -7 20 13 -4 29 -1 37 5 8 7 20 10 27 7 7 -3 4 -6 -7 -6 -13 -1 5 -16 50
-42 39 -22 109 -67 158 -100 91 -61 106 -67 60 -24 -15 14 -22 25 -16 25 7 0
15 -5 18 -10 4 -6 11 -8 16 -5 5 4 9 1 9 -5 0 -7 7 -9 16 -6 12 5 14 1 9 -17
-5 -17 -4 -19 4 -7 9 13 12 12 25 -5 8 -11 10 -22 5 -26 -5 -3 -1 -13 10 -23
11 -10 25 -15 32 -10 8 5 10 3 4 -5 -4 -7 2 -22 14 -34 35 -38 140 -221 130
-227 -5 -4 2 -17 17 -31 14 -13 42 -45 61 -72 l35 -47 311 2 312 3 3 37 c3 34
11 43 35 39 4 -1 19 17 35 39 24 35 54 58 36 27 -4 -6 2 -4 13 5 11 10 22 18
26 18 9 0 -33 -73 -51 -87 -8 -6 -16 -28 -19 -47 l-5 -36 302 0 c280 0 302 1
296 17 -6 16 -6 16 12 0 25 -22 119 -22 100 0 -7 9 -14 10 -17 4 -4 -6 -12 -6
-21 -1 -8 6 -24 10 -36 10 -11 0 -29 9 -38 19 -17 19 -17 20 3 31 12 6 19 15
16 21 -4 5 -11 7 -16 4 -5 -4 -9 -1 -9 4 0 6 7 11 16 11 8 0 12 4 9 10 -3 5 0
10 9 10 8 0 16 4 18 8 2 4 24 23 51 42 26 18 47 39 47 47 0 7 7 13 15 13 9 0
20 12 26 28 27 76 70 122 112 122 9 0 18 6 21 13 5 9 7 9 12 0 8 -18 24 -16
24 3 0 14 3 14 15 4 8 -7 15 -10 15 -6 0 6 26 -18 48 -47 12 -14 11 -21 -6
-45 l-21 -28 22 -25 c24 -26 49 -29 86 -9 13 6 21 7 17 2 -8 -13 10 -25 25
-16 8 4 7 9 -2 15 -12 8 -11 11 1 19 8 5 18 10 21 10 12 0 20 -35 10 -38 -6
-2 -11 -10 -11 -18 0 -9 -4 -12 -10 -9 -5 3 -10 -1 -10 -10 0 -11 -5 -15 -14
-12 -9 4 -17 -2 -21 -14 -4 -10 -10 -19 -14 -19 -11 0 -12 -58 -1 -65 5 -3 11
-1 14 4 3 5 20 5 38 1 20 -4 43 -2 58 5 14 7 68 27 120 46 98 34 125 49 202
112 25 20 50 37 55 37 5 0 18 9 28 20 10 11 24 20 32 20 8 0 34 12 59 26 43
25 44 25 67 7 13 -10 22 -23 20 -30 -2 -6 0 -14 6 -17 6 -4 8 -13 5 -21 -4
-10 0 -12 15 -8 24 6 25 8 11 33 -11 21 8 34 31 20 11 -7 10 -10 -4 -16 -13
-5 -15 -10 -7 -19 17 -20 -24 -58 -52 -49 -18 5 -20 3 -15 -16 4 -16 2 -20 -8
-16 -10 3 -12 0 -8 -12 3 -9 -6 -3 -21 13 -14 17 -24 37 -22 46 2 12 -4 14
-26 11 -27 -4 -29 -7 -25 -44 2 -26 10 -44 22 -50 13 -8 16 -7 11 1 -4 6 -2
11 3 11 6 0 12 -7 12 -15 1 -8 2 -21 3 -27 1 -7 -5 -19 -14 -26 -13 -10 -13
-11 3 -6 20 7 47 -12 47 -32 0 -18 -24 -18 -40 0 -19 24 -40 7 -40 -33 0 -43
-14 -61 -49 -62 -15 0 -35 -4 -46 -9 -11 -5 460 -9 1088 -9 l1107 -1 0 80 0
80 320 0 320 0 0 -80 0 -80 80 0 80 0 -2 4917 c-2 3885 -6 4923 -15 4940 -10
17 -10 29 2 63 11 30 15 84 15 181 l0 139 -673 0 -673 0 -31 -92 c-60 -173
-73 -207 -109 -280 -19 -40 -45 -98 -56 -128 -12 -30 -29 -66 -38 -80 -21 -31
-45 -81 -65 -140 -9 -25 -33 -74 -54 -110 -21 -36 -64 -110 -97 -165 -32 -55
-72 -115 -89 -135 -17 -19 -44 -55 -60 -80 -16 -25 -51 -69 -78 -99 -26 -29
-54 -66 -62 -80 -7 -15 -29 -38 -47 -51 -18 -12 -51 -45 -73 -73 -95 -120
-147 -192 -150 -209 -2 -10 -7 -23 -10 -28 -3 -6 -4 -10 -2 -10 2 0 78 35 168
79 352 168 469 209 469 163 0 -72 -182 -439 -278 -561 -23 -29 -42 -57 -42
-61 0 -5 -30 -47 -67 -94 -38 -46 -95 -119 -128 -162 -66 -85 -87 -106 -296
-309 -125 -121 -284 -255 -304 -255 -9 0 -54 -50 -87 -97 -16 -24 -33 -43 -39
-43 -5 0 -22 12 -37 27 -15 15 -31 28 -36 28 -9 0 -42 54 -87 141 -24 47 -20
79 9 70 27 -9 70 37 83 88 6 22 21 71 33 109 13 37 19 70 15 73 -9 5 -5 46 6
64 3 5 13 10 21 10 30 0 73 30 95 67 13 21 29 44 36 51 7 8 11 18 8 23 -4 5
-1 9 5 9 6 0 15 12 20 26 6 14 14 22 20 19 5 -3 10 1 10 10 0 10 -5 13 -12 9
-7 -4 -4 2 6 14 11 12 14 22 8 22 -7 0 -12 -5 -12 -12 0 -6 -3 -8 -7 -5 -3 4
-12 2 -19 -4 -9 -8 -11 -5 -7 10 3 10 14 22 25 24 13 4 18 11 15 20 -3 8 -1
20 4 28 8 12 10 12 19 -1 6 -9 10 -10 10 -3 0 6 -4 15 -10 18 -18 11 -11 27 9
20 14 -4 20 0 25 17 11 44 7 57 -16 53 -12 -3 -27 0 -35 6 -9 8 -13 8 -13 1 0
-6 -8 -13 -17 -16 -10 -3 -30 -17 -44 -30 -28 -26 -109 -71 -121 -68 -5 1 -8
-3 -8 -10 0 -6 -3 -9 -6 -5 -4 3 -13 -1 -21 -9 -8 -8 -19 -11 -25 -8 -7 4 -3
13 9 23 10 9 39 41 63 71 24 30 52 63 62 73 22 22 22 22 1 47 -16 18 -18 18
-35 3 -10 -8 -15 -20 -12 -24 3 -5 -2 -6 -10 -3 -9 3 -16 1 -16 -5 0 -6 10
-12 23 -12 19 -1 20 -2 2 -6 -10 -3 -29 -12 -42 -20 -16 -11 -23 -12 -23 -3 0
7 -14 3 -37 -11 -21 -13 -46 -27 -55 -33 -11 -7 -21 -6 -32 3 -14 12 -13 16 7
45 12 17 24 40 25 50 5 26 40 53 80 61 23 4 32 11 32 26 0 29 17 58 61 104 92
98 119 130 119 141 0 6 7 17 15 24 12 10 15 10 15 0 0 -10 -16 -33 -61 -88 -9
-11 -7 -18 7 -33 19 -18 20 -18 54 14 19 18 46 33 59 34 13 1 29 7 35 14 8 9
7 10 -3 4 -9 -5 -12 -4 -7 3 4 6 13 9 21 5 10 -3 15 1 15 12 0 9 4 14 9 11 5
-4 23 7 39 24 17 16 35 30 41 30 5 0 17 8 27 17 10 10 20 18 23 18 7 0 65 51
128 113 24 24 48 40 53 37 6 -3 10 4 10 17 0 24 12 50 23 50 27 0 45 12 40 26
-4 10 -2 14 2 9 5 -4 21 5 37 20 15 15 28 24 28 20 0 -3 19 12 43 33 23 22 45
40 49 40 11 0 88 117 82 123 -3 3 11 21 31 41 21 21 48 66 65 108 16 40 30 66
30 58 1 -8 9 1 19 20 16 32 16 37 2 54 -12 15 -12 17 -2 11 11 -6 13 -4 8 8
-4 11 -1 17 8 17 7 0 17 9 20 20 3 11 10 20 15 20 4 0 11 12 15 28 8 33 65
155 76 162 19 13 53 140 38 140 -5 0 -9 -9 -9 -20 0 -11 -5 -20 -10 -20 -6 0
-16 -12 -22 -27 -7 -16 -21 -41 -33 -58 -31 -45 -62 -102 -103 -187 -20 -43
-47 -82 -59 -89 -12 -6 -23 -19 -26 -28 -2 -9 -27 -36 -55 -59 l-51 -43 10 33
c6 18 11 38 13 43 14 52 31 95 38 95 5 0 6 4 3 10 -3 5 3 15 14 22 15 9 17 15
9 26 -9 10 -8 12 3 10 9 -2 15 7 17 25 2 15 9 27 15 27 21 0 54 107 48 153 -1
9 3 17 9 17 6 0 8 4 5 10 -7 12 19 53 28 44 3 -3 3 3 0 15 -3 12 0 27 6 35 7
8 11 23 9 33 -2 12 3 18 15 17 14 -2 15 1 6 12 -6 7 -8 18 -4 24 17 27 -22 5
-56 -32 -22 -24 -39 -39 -39 -34 0 7 -41 -44 -97 -120 -11 -14 -33 -52 -60
-104 -13 -25 -33 -62 -46 -82 -12 -20 -46 -77 -75 -127 -29 -50 -58 -91 -63
-91 -5 0 -9 -4 -9 -10 0 -13 -41 -60 -52 -60 -10 0 0 48 17 75 11 18 27 77 39
145 3 14 9 40 15 57 6 21 6 35 0 39 -6 4 -6 11 1 20 7 7 10 31 7 54 -2 22 -1
40 4 40 5 0 6 6 3 14 -3 8 -1 17 4 20 11 7 3 56 -8 56 -5 0 -16 -7 -24 -16 -9
-8 -20 -12 -26 -9 -5 3 -10 -3 -10 -14 0 -14 -9 -23 -25 -27 -14 -3 -25 -11
-25 -16 0 -5 -7 -17 -16 -26 -15 -15 -16 -14 -9 8 16 54 36 89 109 195 42 61
112 163 156 228 l80 117 -350 0 c-301 0 -350 -2 -350 -15 0 -20 -37 -39 -43
-22 -2 7 -12 -2 -23 -20 -11 -18 -22 -33 -26 -33 -3 0 -36 -40 -72 -89 -35
-49 -76 -101 -91 -117 -14 -15 -35 -42 -46 -61 -11 -18 -26 -33 -31 -33 -6 0
-9 -3 -5 -6 6 -7 -95 -176 -126 -211 -11 -13 -17 -23 -14 -23 4 0 -1 -9 -10
-19 -33 -37 -43 -50 -43 -61 0 -5 -7 -10 -15 -10 -9 0 -12 -6 -8 -15 6 -17
-25 -58 -38 -49 -5 3 -6 -2 -3 -11 5 -11 0 -18 -15 -22 -11 -3 -18 -9 -15 -14
3 -5 0 -9 -7 -9 -10 0 -10 -3 -2 -11 12 -12 -6 -52 -35 -76 -7 -6 -16 -26 -19
-45 -6 -40 -32 -76 -150 -209 -29 -32 -53 -63 -53 -68 0 -13 -90 -131 -100
-131 -14 0 -16 62 -3 109 12 45 85 131 109 131 7 0 16 9 19 20 4 11 11 18 16
15 5 -4 9 1 9 9 0 9 4 16 9 16 5 0 25 33 46 73 21 39 53 88 72 107 70 72 81
86 88 108 3 12 11 22 17 22 16 0 37 32 38 56 0 12 6 27 14 34 8 6 13 17 10 24
-3 7 2 19 11 26 8 7 15 18 15 24 0 7 8 21 19 32 10 11 22 30 25 42 4 12 13 28
19 34 7 7 28 47 47 88 19 41 38 78 43 81 4 3 21 43 38 90 16 46 41 100 53 119
13 20 33 55 45 78 l22 42 -656 0 c-431 -1 -654 -4 -650 -11 4 -6 -4 -8 -20 -5
-21 4 -24 2 -16 -8 6 -8 8 -21 5 -30 -5 -14 -9 -14 -22 -4 -13 11 -14 10 -4
-8 6 -12 9 -24 6 -27 -9 -9 -12 -57 -3 -51 5 3 16 -1 24 -10 17 -16 20 -30 6
-21 -6 3 -15 -3 -21 -14 -6 -12 -16 -18 -25 -15 -10 4 -15 0 -15 -11 0 -10 -5
-13 -12 -9 -8 5 -9 2 -5 -10 4 -9 3 -15 -1 -13 -4 3 -13 -1 -19 -9 -9 -9 -10
-15 -2 -20 8 -5 4 -12 -10 -23 -12 -9 -23 -27 -26 -40 -2 -13 -7 -26 -10 -29
-2 -3 0 -11 5 -17 7 -9 6 -16 -5 -25 -18 -15 -21 -45 -3 -34 7 4 8 3 4 -5 -4
-6 -12 -9 -17 -6 -5 4 -9 0 -9 -9 0 -8 -5 -16 -12 -18 -6 -2 -11 -18 -10 -36
0 -21 -4 -32 -13 -32 -9 0 -12 -6 -8 -17 4 -10 2 -14 -4 -10 -6 4 -9 -3 -7
-18 1 -14 -2 -23 -6 -20 -5 3 -12 -4 -15 -16 -4 -13 -12 -18 -22 -15 -14 6
-13 3 1 -19 14 -20 14 -23 1 -19 -8 4 -17 -1 -21 -10 -3 -9 -10 -13 -15 -10
-5 3 -9 2 -8 -3 1 -4 -3 -21 -9 -36 -7 -16 -12 -33 -12 -39 0 -6 -7 -5 -17 3
-12 10 -15 11 -9 1 5 -8 -2 -20 -18 -33 -14 -11 -26 -26 -26 -34 0 -8 -7 -11
-20 -8 -15 4 -19 2 -15 -9 4 -9 -5 -22 -22 -33 -15 -10 -33 -25 -39 -33 -9
-12 -13 -13 -19 -2 -6 9 -4 11 5 5 9 -6 11 -4 5 5 -6 10 -11 9 -22 -5 -7 -11
-13 -15 -13 -9 0 5 -7 1 -15 -10 -8 -10 -20 -16 -28 -13 -8 3 -20 0 -26 -6 -8
-8 -11 -7 -11 3 0 10 -4 8 -13 -5 -8 -10 -19 -15 -25 -11 -7 4 -12 2 -12 -3 0
-6 -3 -10 -7 -10 -19 3 -33 -2 -47 -17 -10 -9 -16 -11 -16 -4 0 13 -52 10 -61
-4 -11 -14 -171 -13 -176 2 -3 6 -9 12 -15 12 -5 0 -6 -4 -3 -10 11 -18 -21
-11 -45 10 -26 22 -36 25 -45 10 -4 -6 -11 -8 -16 -4 -5 3 -7 9 -5 13 7 10
-58 6 -75 -4 -8 -6 -10 -4 -4 5 6 10 2 12 -18 8 -18 -3 -28 0 -32 11 -5 13 -7
14 -15 1 -8 -12 -10 -12 -10 -1 0 11 -3 11 -15 1 -8 -7 -13 -16 -10 -20 2 -4
-4 -15 -15 -25 -11 -10 -20 -24 -20 -32 0 -7 -7 -13 -16 -13 -8 0 -13 -4 -9
-9 3 -5 -5 -11 -17 -13 -19 -2 -23 -9 -21 -37 1 -20 -2 -29 -6 -22 -6 10 -10
9 -14 -3 -8 -20 -75 -19 -94 0 -17 17 -33 60 -33 90 0 22 4 24 50 24 28 0 50
-5 50 -10 0 -13 40 -29 57 -23 9 4 10 18 3 43 -1 3 -5 -4 -10 -15 -8 -18 -9
-17 -9 8 -1 19 3 26 11 21 7 -4 8 -3 4 5 -4 6 -3 17 2 24 5 7 12 25 16 41 6
24 4 27 -9 22 -9 -3 -13 -2 -10 4 3 5 -1 21 -10 34 -9 14 -14 30 -10 36 11 17
-15 70 -31 63 -8 -3 -16 5 -20 21 -3 15 -14 31 -23 37 -14 9 -14 10 0 6 9 -3
16 1 16 9 0 8 -7 14 -16 14 -14 0 -14 2 -1 10 13 9 13 10 0 11 -8 1 -19 1 -23
0 -4 -1 -7 7 -5 16 2 12 -3 18 -14 17 -10 -1 -14 4 -11 12 3 8 9 12 13 9 14
-8 -2 38 -22 67 -11 15 -20 37 -21 48 -1 11 -5 20 -10 20 -5 0 -6 7 -3 16 8
22 -19 64 -42 65 -15 0 -15 1 2 8 18 7 18 8 1 25 -14 14 -15 20 -6 26 9 5 10
13 3 26 -10 18 -12 26 -12 42 0 4 -5 0 -11 -8 -8 -12 -10 -9 -6 13 2 16 0 27
-7 27 -7 0 -12 9 -12 20 0 11 4 20 9 20 6 0 5 5 0 13 -12 15 -15 59 -3 52 4
-3 10 -2 13 2 2 5 2 2 1 -4 -2 -7 0 -13 5 -13 12 0 20 59 8 63 -5 1 -3 10 6
19 14 14 14 17 -4 37 -20 21 -21 21 -611 21 -584 0 -591 0 -574 -19 10 -11 15
-25 11 -30 -3 -6 -1 -11 4 -11 17 0 13 -21 -6 -36 -11 -8 -13 -13 -5 -14 7 0
12 -12 11 -27 0 -16 -3 -22 -6 -15 -2 6 -14 12 -26 12 -22 0 -47 26 -97 102
l-25 38 -374 0 c-362 0 -374 -1 -358 -18 10 -10 17 -23 17 -29 0 -5 9 -18 20
-28 11 -10 20 -22 20 -28 0 -5 23 -43 50 -83 28 -40 50 -78 50 -84 0 -5 4 -10
9 -10 5 0 23 -27 39 -60 17 -33 28 -60 23 -60 -4 0 -12 9 -17 19 -28 58 -104
125 -104 90 0 -5 6 -7 13 -3 8 5 8 2 -2 -9 -9 -12 -10 -17 -2 -17 7 0 17 -13
22 -30 6 -16 15 -30 20 -30 17 0 9 -20 -8 -20 -16 -1 -16 -2 1 -15 11 -8 14
-15 7 -15 -7 0 -9 -5 -6 -10 4 -7 14 -6 28 1 22 12 22 12 3 -10 -11 -12 -25
-20 -31 -17 -7 2 -18 0 -26 -5 -11 -7 -9 -9 7 -9 23 0 26 -28 6 -52 -8 -11 -9
-17 0 -26 13 -13 17 -83 4 -75 -5 3 -6 0 -4 -8 3 -8 11 -13 17 -11 6 1 11 -10
11 -26 0 -15 7 -38 16 -50 8 -12 12 -22 9 -22 -3 0 0 -12 8 -27 8 -16 25 -53
38 -83 13 -30 34 -72 46 -92 13 -21 23 -40 23 -44 0 -14 -31 21 -61 69 -17 29
-44 70 -59 92 -15 22 -56 101 -93 175 -60 123 -300 503 -329 521 -6 4 -13 15
-14 24 -1 9 -10 25 -18 34 -9 10 -16 25 -16 35 0 9 -4 15 -9 12 -5 -3 -8 2 -7
12 1 16 -56 17 -1001 20 l-1003 2 0 -5120z m6015 5007 c12 -4 9 -5 -8 -3 -15
2 -30 -1 -33 -6 -3 -4 -10 -6 -15 -2 -5 3 -7 10 -3 15 3 5 10 7 15 4 5 -4 9 0
9 7 0 9 2 10 8 2 4 -7 16 -14 27 -17z m-2796 4 c7 -5 12 -14 9 -21 -2 -7 -10
-4 -22 9 -19 21 -12 28 13 12z m2791 -31 c0 -5 -2 -10 -4 -10 -3 0 -8 5 -11
10 -3 6 -1 10 4 10 6 0 11 -4 11 -10z m-2690 -85 c6 -7 21 -39 34 -71 13 -33
31 -76 40 -97 10 -22 12 -36 7 -32 -6 3 -11 10 -11 14 0 4 -25 45 -55 91 -31
45 -53 85 -50 88 2 3 0 11 -6 18 -8 9 -5 11 10 7 11 -3 25 -11 31 -18z m2875
-16 c0 -28 -4 -35 -22 -37 -29 -4 -35 36 -11 66 18 21 33 8 33 -29z m-3694
-246 c13 -16 12 -17 -3 -4 -10 7 -18 15 -18 17 0 8 8 3 21 -13z m969 -69 c0
-8 5 -14 10 -14 6 0 10 -7 10 -15 0 -23 -18 -18 -26 8 -12 35 -13 48 -3 41 5
-3 9 -12 9 -20z m4339 -109 c-62 -118 -129 -256 -129 -265 0 -4 -4 -10 -8 -12
-5 -1 -26 -39 -47 -82 -21 -44 -47 -88 -57 -98 -10 -10 -16 -18 -13 -18 3 0
-5 -11 -19 -25 -14 -14 -30 -25 -35 -25 -5 0 -13 -4 -16 -10 -4 -6 1 -7 10 -3
15 5 15 3 4 -15 -12 -19 -15 -20 -22 -6 -6 11 -2 30 12 59 11 23 21 46 21 50
0 4 20 37 44 74 24 36 50 80 57 96 7 17 21 41 30 55 9 14 29 48 44 75 34 61
112 183 134 208 27 32 22 3 -10 -58z m-5069 -70 c0 -8 -2 -15 -4 -15 -2 0 -6
7 -10 15 -3 8 -1 15 4 15 6 0 10 -7 10 -15z m-789 -9 c8 4 10 -1 9 -21 -1 -3
6 -13 15 -21 8 -9 15 -21 15 -27 0 -7 27 -52 60 -102 33 -49 76 -114 96 -143
40 -61 39 -61 90 -122 62 -74 138 -150 152 -150 6 0 12 -9 12 -21 0 -11 4 -17
10 -14 11 7 83 -46 127 -92 12 -13 27 -23 33 -23 5 0 10 -5 10 -10 0 -6 10
-15 23 -21 12 -5 31 -15 42 -22 11 -7 52 -31 90 -54 39 -22 83 -56 99 -75 16
-18 35 -40 43 -49 7 -9 18 -30 22 -47 8 -25 7 -30 -5 -25 -8 3 -14 2 -13 -3 4
-22 -3 -32 -23 -37 -21 -6 -21 -7 -5 -25 9 -10 15 -21 12 -24 -3 -3 8 -4 25
-3 17 1 31 4 33 6 22 30 37 62 37 79 0 34 34 23 140 -45 96 -62 129 -78 114
-54 -4 8 -1 8 12 1 23 -12 70 -92 54 -92 -6 0 -9 -4 -6 -9 4 -5 -3 -7 -14 -4
-19 5 -19 7 -6 22 13 15 8 16 -60 17 -60 1 -72 -2 -63 -13 6 -7 18 -13 25 -13
23 0 47 -46 36 -67 -8 -15 -5 -24 15 -43 l26 -25 -22 -3 c-13 -2 -33 5 -44 16
-12 10 -57 38 -101 60 -65 34 -83 39 -104 31 -15 -6 -28 -6 -31 -1 -3 5 -15 0
-26 -10 -19 -18 -19 -19 -1 -12 16 6 18 4 13 -10 -7 -18 28 -104 63 -156 54
-78 91 -142 87 -147 -9 -9 31 -46 42 -39 7 4 8 1 5 -8 -3 -9 1 -23 10 -31 9
-9 16 -30 16 -46 0 -16 3 -29 8 -29 4 0 13 -15 21 -32 8 -18 26 -49 40 -68 14
-19 26 -37 26 -40 2 -14 37 -70 44 -70 5 0 14 -20 20 -44 13 -54 14 -59 2 -52
-10 7 -3 -42 11 -71 8 -17 8 -30 0 -48 -9 -19 -8 -34 3 -66 8 -23 15 -43 15
-44 0 -10 -52 -10 -61 1 -6 7 -42 29 -81 50 -45 23 -115 75 -190 143 -66 58
-156 137 -201 175 -153 127 -321 302 -420 436 -31 41 -65 86 -77 100 -12 14
-34 44 -48 68 -15 24 -42 67 -61 95 -52 81 -107 185 -141 267 -25 60 -30 84
-26 119 12 91 16 90 356 -72 147 -70 231 -103 280 -111 24 -4 48 -12 52 -19 4
-6 9 -9 12 -7 14 14 -165 222 -344 400 -152 151 -233 249 -268 325 -6 11 -24
37 -41 59 -29 37 -142 255 -140 272 0 5 3 3 6 -4 2 -6 9 -10 14 -6z m815 -41
c3 -14 10 -25 15 -25 5 0 8 -3 7 -7 -2 -5 0 -8 4 -8 9 0 37 -37 38 -49 0 -4
-15 7 -33 25 -35 36 -63 89 -47 89 5 0 12 -11 16 -25z m869 -26 c10 -29 74
-138 105 -175 14 -18 36 -46 49 -63 13 -17 27 -29 31 -26 5 3 11 -3 15 -14 6
-18 32 -43 124 -120 23 -18 41 -37 41 -42 0 -16 -29 -10 -40 9 -14 22 -9 8 18
-50 12 -25 25 -60 28 -77 6 -26 4 -30 -10 -25 -9 3 -16 12 -16 19 0 7 -17 32
-39 56 -50 58 -130 164 -161 214 -13 22 -36 56 -52 75 -22 28 -128 224 -128
237 0 1 6 3 14 3 8 0 18 -9 21 -21z m-797 -114 c-3 -3 -9 2 -12 12 -6 14 -5
15 5 6 7 -7 10 -15 7 -18z m2046 -151 c24 -9 1 -44 -29 -44 -27 0 -33 18 -13
38 14 14 20 14 42 6z m-267 -19 c0 -8 -4 -12 -9 -9 -5 3 -6 10 -3 15 9 13 12
11 12 -6z m119 -92 c-10 -10 -19 5 -10 18 6 11 8 11 12 0 2 -7 1 -15 -2 -18z
m2219 -70 c-5 -41 -4 -45 9 -34 8 7 18 20 21 29 2 10 14 23 25 30 29 18 27 -5
-5 -52 -13 -20 -22 -36 -19 -36 4 0 -6 -16 -20 -35 -15 -19 -32 -49 -38 -66
-6 -17 -21 -41 -34 -54 -13 -13 -24 -35 -24 -49 0 -39 -20 -75 -38 -69 -9 4
-13 2 -9 -4 3 -5 -1 -10 -9 -10 -9 0 -20 11 -25 24 -9 24 -39 32 -40 11 0 -7
-4 -3 -10 10 -5 13 -13 20 -19 17 -15 -9 45 89 98 163 26 34 56 78 67 97 26
42 55 75 67 75 6 0 7 -20 3 -47z m-3263 -152 c12 -13 24 -18 26 -13 4 13 32 4
32 -10 0 -5 -6 -6 -12 -2 -8 4 -10 3 -5 -2 9 -9 13 -10 42 -13 8 0 15 -6 15
-12 0 -5 -6 -7 -12 -4 -7 4 -6 1 3 -7 9 -7 19 -23 23 -34 7 -24 46 -63 46 -46
0 5 10 8 23 5 25 -7 57 -32 57 -45 0 -6 8 -20 19 -33 14 -19 21 -21 31 -12 9
9 11 9 6 0 -3 -6 -2 -13 3 -15 5 -1 12 -21 15 -43 3 -22 10 -65 16 -95 9 -51
6 -141 -6 -200 -3 -14 -8 -38 -10 -54 -2 -15 -9 -35 -15 -43 -10 -11 -10 -14
2 -11 8 2 13 -4 12 -16 -2 -31 16 -3 26 39 8 35 9 30 10 -47 1 -76 -2 -91 -20
-109 -15 -15 -24 -18 -33 -10 -7 6 -16 8 -19 4 -4 -3 -7 -2 -7 4 0 6 -10 14
-22 18 -20 6 -20 8 -6 12 16 4 16 6 4 19 -8 8 -19 14 -24 14 -16 0 -8 34 11
48 9 7 15 18 12 23 -4 5 -1 9 6 9 9 0 8 4 -3 13 -16 13 -32 61 -17 51 5 -3 9
-1 9 5 0 5 -5 13 -11 17 -7 4 -8 9 0 17 7 7 6 21 -5 45 -9 23 -11 39 -4 47 7
8 5 12 -5 12 -8 0 -15 -5 -15 -11 0 -6 -4 -6 -11 1 -6 6 -13 30 -15 54 -2 24
-7 51 -10 61 -3 10 -1 18 5 18 7 0 8 6 2 18 -15 29 -31 85 -26 90 2 3 11 -1
20 -8 9 -7 18 -10 21 -7 8 7 -105 131 -131 143 -11 5 -19 17 -17 27 2 9 -2 17
-7 17 -10 0 -121 152 -121 165 0 4 16 -10 35 -31 19 -22 45 -50 57 -63z m3004
-200 c-10 -11 -19 -31 -20 -45 0 -14 -5 -26 -9 -26 -5 0 -5 -4 -2 -10 3 -5 0
-10 -7 -10 -10 0 -11 -2 0 -8 16 -11 5 -42 -15 -42 -8 0 -11 -5 -8 -10 9 -15
-22 -60 -41 -60 -10 0 -14 6 -11 15 4 8 1 17 -5 21 -6 4 -8 3 -4 -4 3 -6 -5
-23 -19 -38 -14 -15 -25 -30 -25 -33 0 -3 -1 -69 -2 -146 0 -77 -4 -149 -8
-160 -8 -21 -22 284 -16 345 2 19 4 50 5 68 0 18 5 31 10 27 15 -9 32 34 35
87 0 9 7 16 16 16 8 -1 21 1 29 3 21 6 25 -26 6 -45 -9 -9 -12 -16 -6 -16 6 0
14 0 19 0 4 0 7 4 7 8 0 16 60 82 74 82 11 0 10 -4 -3 -19z m34 -141 c0 -11
-7 -20 -15 -20 -13 0 -14 4 -5 20 6 11 13 20 15 20 3 0 5 -9 5 -20z m-39 -53
c-10 -9 -11 -8 -5 6 3 10 9 15 12 12 3 -3 0 -11 -7 -18z m59 -52 c-6 -19 -16
-35 -21 -35 -6 0 -6 -6 0 -18 6 -12 4 -31 -9 -62 -10 -25 -32 -80 -49 -122
-17 -43 -31 -86 -31 -95 -1 -10 -12 -31 -25 -48 -20 -25 -28 -28 -42 -19 -30
18 -26 39 22 139 25 53 47 109 48 126 1 16 6 29 11 29 5 0 6 3 3 6 -6 7 26 69
72 138 23 35 26 37 29 18 2 -12 -2 -38 -8 -57z m-1815 55 c-3 -5 -13 -10 -21
-10 -8 0 -12 5 -9 10 3 6 13 10 21 10 8 0 12 -4 9 -10z m1715 -10 c0 -5 -5
-10 -11 -10 -5 0 -7 5 -4 10 3 6 8 10 11 10 2 0 4 -4 4 -10z m50 -31 c0 -5 -4
-8 -9 -5 -5 4 -12 0 -14 -6 -3 -8 -6 -6 -6 5 -1 9 6 17 14 17 8 0 15 -5 15
-11z m-2064 -35 c10 -8 14 -13 7 -10 -7 4 -11 -5 -10 -26 2 -29 -3 -36 -43
-60 -66 -39 -145 -102 -143 -113 2 -6 19 -11 38 -13 19 -2 33 -7 30 -13 -4 -5
-1 -10 4 -10 22 -3 27 -5 69 -34 41 -29 42 -32 37 -70 -3 -22 -9 -51 -12 -64
-4 -17 -2 -22 6 -17 6 4 11 3 11 -1 0 -5 -9 -14 -20 -21 -11 -7 -20 -18 -20
-26 0 -9 -16 -17 -40 -21 -22 -4 -38 -11 -34 -16 3 -5 0 -9 -5 -9 -6 0 -11 5
-11 10 0 14 -61 50 -73 43 -6 -3 -7 -1 -3 5 4 7 1 12 -6 12 -7 0 -24 16 -38
36 -60 85 -70 94 -98 88 -15 -3 -64 -31 -110 -62 -45 -30 -84 -53 -87 -51 -9
9 156 171 219 214 56 39 201 117 294 158 l22 10 -21 23 c-37 40 -6 72 37 38z
m334 -3 c0 -13 -50 -64 -57 -57 -4 3 6 20 22 36 31 32 35 35 35 21z m120 -241
c0 -5 -5 -10 -11 -10 -5 0 -7 5 -4 10 3 6 8 10 11 10 2 0 4 -4 4 -10z m-235
-420 c3 -5 2 -10 -3 -10 -6 0 -13 -11 -16 -25 -4 -15 -18 -30 -34 -36 -14 -6
-30 -15 -34 -22 -12 -19 -20 0 -9 21 17 31 65 82 78 82 6 0 15 -4 18 -10z
m-2547 -102 c18 -18 15 -56 -5 -66 -36 -19 -72 1 -73 40 0 31 55 49 78 26z
m2442 -20 c-13 -5 -25 -6 -29 -3 -9 10 21 24 37 17 12 -4 10 -7 -8 -14z m3020
-178 c-9 -18 -40 -40 -54 -40 -3 0 -6 5 -6 12 0 19 32 48 52 48 16 0 17 -3 8
-20z m-6390 -270 c0 -5 -4 -10 -10 -10 -5 0 -10 5 -10 10 0 6 5 10 10 10 6 0
10 -4 10 -10z m4758 -200 c-7 -11 -19 -20 -27 -20 -11 0 -10 5 4 20 10 11 22
20 27 20 4 0 3 -9 -4 -20z m72 -15 c0 -7 4 -15 8 -17 5 -1 28 -31 51 -65 24
-35 50 -67 59 -73 10 -5 13 -10 9 -10 -4 0 1 -10 12 -21 11 -12 27 -38 36 -58
9 -20 20 -43 24 -51 5 -9 12 -31 16 -49 4 -18 15 -48 25 -65 20 -34 21 -127 2
-134 -6 -2 -42 11 -79 28 -84 40 -175 61 -273 65 -41 2 -101 6 -132 9 -32 4
-83 8 -114 10 -31 2 -61 10 -68 16 -8 10 -8 11 1 6 11 -6 37 26 28 36 -2 2 25
37 61 78 63 72 164 216 177 253 7 20 33 23 39 5 5 -14 43 7 79 43 20 20 39 18
39 -6z m-190 -78 c0 -2 -10 -12 -21 -23 -22 -19 -22 -19 -10 4 10 18 31 31 31
19z m-1889 -276 c21 -20 20 -49 -3 -78 -25 -31 -68 -3 -68 43 0 19 27 54 42
54 5 0 18 -9 29 -19z m2137 -212 c24 -6 75 -28 115 -48 55 -27 80 -47 106 -84
l34 -49 -28 -24 c-15 -13 -33 -24 -39 -24 -6 0 -5 4 3 9 11 7 7 13 -20 24 -19
8 -45 24 -59 36 -23 21 -31 22 -135 16 -60 -4 -113 -9 -117 -12 -5 -2 -19 8
-32 22 -17 18 -23 34 -20 53 3 15 6 34 7 42 10 55 79 69 185 39z m-798 -154
c8 0 16 -10 18 -23 3 -16 8 -22 19 -18 10 4 13 2 10 -7 -5 -15 26 -71 34 -62
3 2 6 -11 7 -30 2 -20 -2 -35 -8 -35 -8 0 -7 -6 0 -20 6 -11 8 -25 5 -30 -3
-6 -1 -10 4 -10 6 0 11 -8 11 -18 0 -10 7 -27 15 -38 8 -10 15 -30 15 -44 0
-15 14 -41 34 -62 18 -19 38 -42 42 -49 17 -26 105 -65 118 -51 4 3 50 6 104
7 90 0 291 31 302 45 3 4 26 10 52 13 65 9 188 73 188 97 0 13 11 22 37 29 20
6 40 8 44 5 5 -3 6 2 3 11 -5 12 4 9 31 -9 21 -14 42 -26 47 -26 5 0 8 -6 6
-12 -1 -7 3 -23 10 -35 10 -19 10 -23 0 -23 -10 0 -10 -2 0 -9 11 -7 11 -11
-1 -23 -11 -10 -12 -19 -5 -32 6 -10 12 -42 15 -70 2 -28 8 -78 11 -111 4 -33
4 -78 -1 -100 -4 -22 -8 -49 -8 -59 0 -11 -5 -28 -10 -38 -6 -11 -13 -32 -15
-46 -3 -15 -9 -31 -15 -38 -5 -6 -7 -13 -4 -16 3 -3 -6 -30 -20 -61 -14 -31
-28 -64 -30 -75 -2 -10 -10 -41 -18 -68 -14 -50 -17 -320 -3 -342 3 -6 1 -14
-5 -17 -6 -4 -8 -17 -5 -30 3 -12 3 -25 -1 -29 -4 -3 -8 -16 -10 -28 -12 -78
-178 -308 -223 -308 -5 0 -10 -5 -10 -11 0 -5 -5 -7 -11 -4 -6 4 -13 -2 -16
-14 -3 -12 -12 -21 -20 -21 -8 0 -11 -4 -8 -10 3 -5 0 -10 -7 -10 -13 0 -51
-32 -145 -121 -29 -27 -57 -49 -62 -49 -6 0 -15 -9 -21 -21 -7 -12 -18 -18
-26 -15 -8 3 -14 1 -14 -3 0 -5 -20 -21 -45 -35 -25 -15 -45 -31 -45 -35 0
-15 -149 -115 -162 -110 -2 0 -16 -4 -31 -10 -15 -6 -42 -14 -60 -17 -43 -9
-237 -11 -237 -2 0 3 -27 9 -60 13 -33 4 -60 11 -60 17 0 5 -6 8 -12 5 -7 -2
-27 1 -45 8 -17 8 -34 11 -37 7 -3 -3 -6 0 -6 7 0 7 -4 10 -10 6 -11 -7 -50
16 -50 29 0 5 -7 14 -15 20 -8 6 -17 22 -20 35 -2 12 -9 29 -16 37 -9 11 -8
14 5 14 9 0 16 5 16 11 0 5 -6 7 -12 3 -10 -6 -10 -4 -2 7 6 8 10 23 8 34 -2
11 -1 26 1 34 4 11 8 11 22 0 15 -13 15 -12 3 10 -11 21 -10 23 3 18 9 -3 28
5 44 19 15 13 36 24 46 24 10 0 27 5 37 10 10 6 38 12 62 15 139 17 298 72
335 115 25 30 16 38 -37 34 -25 -2 -42 2 -50 11 -7 8 -19 15 -26 15 -8 0 -19
12 -25 28 -22 60 -21 58 -29 37 -5 -11 -9 -15 -9 -10 -1 12 -45 14 -57 3 -4
-4 -13 -3 -21 3 -10 9 -13 8 -13 0 0 -7 -4 -9 -10 -6 -15 9 -12 -2 6 -30 16
-24 15 -25 -5 -25 -13 0 -19 4 -16 10 4 6 1 17 -5 25 -6 8 -9 19 -5 25 3 5 -1
10 -9 10 -9 0 -16 -4 -16 -10 0 -19 -17 -10 -29 16 -16 35 -3 50 20 25 23 -24
30 -26 27 -8 -2 8 12 12 44 12 25 0 50 3 54 7 4 4 17 5 29 2 12 -3 40 2 61 11
23 9 60 15 94 13 93 -4 312 1 318 7 13 12 -35 32 -106 44 -41 7 -82 17 -91 21
-108 56 -153 68 -288 75 -63 3 -131 12 -152 18 -30 10 -36 17 -39 45 -6 64 44
123 117 137 33 6 81 60 81 91 0 28 29 32 70 9 40 -23 80 -18 112 12 40 39 37
66 -12 88 -46 21 -111 16 -140 -10 -26 -24 -50 -13 -117 54 -107 107 -117 122
-115 166 10 201 10 253 2 275 -9 24 -13 55 -26 215 -4 47 -12 74 -23 83 -15
12 -15 13 0 9 21 -7 34 21 49 103 6 36 18 75 27 88 8 13 12 30 9 38 -3 8 0 14
6 14 6 0 9 3 6 6 -5 4 26 37 79 84 10 8 35 15 55 16 21 0 41 4 45 7 3 4 11 3
17 -1 6 -3 18 -7 26 -7z m660 -231 c0 -8 -5 -24 -10 -34 -18 -33 -57 -1 -44
35 8 20 54 20 54 -1z m110 -34 c40 -25 -68 -105 -159 -116 l-36 -5 30 14 c17
8 53 37 80 65 53 53 61 57 85 42z m-1490 -85 c0 -8 -4 -15 -9 -15 -13 0 -22
16 -14 24 11 11 23 6 23 -9z m1100 -21 c0 -2 -7 -4 -15 -4 -8 0 -15 4 -15 10
0 5 7 7 15 4 8 -4 15 -8 15 -10z m-1030 -13 c0 -6 -4 -13 -10 -16 -5 -3 -10 1
-10 9 0 9 5 16 10 16 6 0 10 -4 10 -9z m36 -53 c3 -4 -4 -8 -15 -8 -12 0 -41
-5 -66 -12 -49 -13 -71 -4 -41 18 20 14 114 16 122 2z m-196 -38 c0 -10 -4
-21 -8 -24 -12 -7 -52 22 -51 37 0 9 2 9 6 0 7 -18 33 -16 33 3 0 8 5 12 10 9
6 -3 10 -15 10 -25z m17 8 c-3 -8 -6 -5 -6 6 -1 11 2 17 5 13 3 -3 4 -12 1
-19z m28 3 c3 -5 1 -12 -5 -16 -5 -3 -10 1 -10 9 0 18 6 21 15 7z m290 -127
c-18 -14 -9 -48 11 -40 8 3 14 1 14 -4 0 -6 -4 -10 -10 -10 -5 0 -10 -7 -10
-16 0 -8 4 -13 9 -10 5 4 6 -9 1 -29 -4 -19 -4 -33 0 -30 5 3 8 -8 8 -25 -1
-17 -5 -33 -10 -36 -4 -3 -6 -10 -3 -15 4 -5 1 -9 -5 -9 -6 0 -8 -4 -5 -10 3
-5 -2 -10 -12 -10 -10 0 -14 -4 -8 -8 14 -10 17 -32 9 -51 -4 -9 -8 -18 -9
-21 -1 -3 -4 -12 -8 -20 -10 -28 -16 -90 -8 -90 5 0 3 -17 -5 -37 -7 -21 -13
-48 -14 -60 0 -14 -6 -23 -15 -23 -8 0 -15 -3 -16 -7 0 -5 -2 -18 -3 -30 -2
-13 1 -23 6 -23 13 0 9 -28 -4 -34 -10 -4 -10 -7 -1 -12 8 -4 8 -12 -3 -32 -7
-15 -11 -35 -8 -46 4 -12 2 -16 -5 -12 -6 4 -11 0 -11 -8 0 -9 -8 -16 -17 -16
-10 0 -14 -4 -8 -8 6 -4 10 -18 11 -31 1 -21 -1 -22 -11 -7 -18 24 -28 19 -21
-11 4 -16 3 -23 -1 -17 -11 16 -42 13 -36 -3 6 -16 -9 -17 -26 0 -11 10 -13 9
-8 -5 3 -9 0 -19 -9 -22 -8 -3 -14 -2 -14 2 0 4 -20 7 -45 7 -25 0 -45 -4 -45
-8 0 -5 5 -5 10 -2 6 3 10 -2 10 -12 -1 -16 -3 -15 -20 5 -12 15 -21 19 -26
11 -5 -8 -9 -7 -16 4 -5 10 -15 14 -25 10 -13 -5 -15 -2 -11 14 5 18 2 20 -23
16 -24 -3 -31 0 -39 22 -5 14 -13 24 -17 22 -5 -3 -14 1 -21 9 -7 8 -8 14 -2
14 5 0 10 5 10 11 0 5 -4 7 -10 4 -5 -3 -10 -2 -10 3 0 5 -9 12 -20 15 -12 3
-20 14 -20 26 0 13 -7 21 -17 22 -16 1 -16 2 0 6 18 5 18 6 1 24 -13 15 -14
19 -3 19 9 1 8 4 -5 11 -14 9 -15 13 -6 19 9 6 6 10 -9 15 -16 5 -21 13 -19
33 2 22 -1 27 -17 25 -19 -1 -19 -1 -2 12 16 11 16 13 2 19 -9 3 -13 10 -10
16 3 5 1 10 -5 10 -6 0 -8 5 -5 10 3 6 0 10 -7 10 -9 0 -9 3 2 10 12 8 12 10
1 10 -11 0 -11 3 -1 15 7 9 10 18 6 22 -3 3 -6 2 -6 -4 0 -6 -7 -14 -16 -17
-14 -5 -15 -4 -4 9 7 8 10 22 6 30 -4 10 -2 14 5 9 7 -4 7 1 -1 15 -17 33 -20
60 -8 67 7 5 8 2 3 -6 -5 -8 -4 -11 3 -6 6 4 9 13 6 20 -3 8 -1 17 5 21 6 3
11 15 11 25 0 10 11 32 25 48 13 16 22 31 20 34 -2 2 11 12 30 23 21 11 35 26
35 37 0 11 4 17 8 14 5 -3 19 4 31 15 12 11 26 17 31 14 6 -3 10 -2 10 3 0 10
41 18 138 29 32 3 66 9 77 13 11 4 35 6 53 5 17 -2 32 1 32 7 0 5 6 8 13 7 6
-1 25 3 41 10 19 7 33 8 39 2 5 -5 15 -7 22 -5 6 3 17 -5 24 -18 l12 -23 -5
22 c-2 13 0 26 5 29 5 3 9 0 9 -5 0 -6 4 -11 9 -11 5 0 7 10 5 23 -4 20 -4 20
6 -3 9 -20 8 -27 -5 -36z m-75 -714 c0 -5 -5 -10 -11 -10 -5 0 -7 5 -4 10 3 6
8 10 11 10 2 0 4 -4 4 -10z m1830 -90 c-8 -5 -10 -10 -4 -10 8 0 8 -11 -2 -37
-7 -21 -13 -45 -14 -53 0 -27 -20 -40 -41 -27 -16 10 -27 4 -77 -46 -39 -39
-58 -52 -57 -40 3 42 28 123 37 123 5 0 6 5 2 12 -4 7 -3 8 4 4 7 -4 16 3 21
17 12 31 28 42 44 29 8 -7 18 -2 32 14 11 13 31 24 45 24 20 0 22 -2 10 -10z
m-2056 -96 c3 -8 2 -12 -4 -9 -6 3 -10 10 -10 16 0 14 7 11 14 -7z m2023 -74
c1 -11 -2 -20 -8 -20 -5 0 -9 9 -9 20 0 11 4 20 8 20 4 0 8 -9 9 -20z m1963
-16 c0 -8 6 -14 13 -14 15 -1 92 -72 100 -94 4 -9 13 -16 22 -16 8 0 15 -4 15
-10 0 -5 6 -7 14 -4 10 4 14 0 12 -13 -2 -10 8 -28 21 -40 13 -13 21 -23 17
-23 -4 0 5 -11 20 -25 15 -14 23 -25 19 -25 -4 0 -3 -4 2 -8 14 -9 68 -102 60
-102 -3 0 1 -10 10 -23 8 -13 12 -27 9 -30 -4 -4 1 -9 10 -13 10 -4 16 -18 16
-36 0 -16 4 -38 10 -48 5 -10 13 -36 16 -57 3 -21 9 -40 13 -43 3 -3 7 -14 9
-25 9 -57 15 -75 25 -75 7 0 7 -4 -1 -12 -9 -9 -7 -18 11 -37 12 -14 14 -19 5
-12 -21 16 -25 -1 -5 -21 7 -7 12 -33 12 -58 -1 -25 3 -50 8 -57 5 -7 6 -17 2
-23 -3 -5 -2 -10 2 -10 5 0 9 -17 10 -37 1 -38 7 -67 18 -104 6 -18 7 -18 38
3 18 12 59 53 92 91 33 39 81 92 108 119 26 27 47 53 47 58 0 13 37 19 49 7
12 -12 70 9 72 27 6 59 11 81 24 104 10 18 14 22 15 10 0 -9 -4 -20 -10 -23
-6 -4 -6 -12 1 -24 9 -13 7 -28 -10 -65 -11 -27 -21 -58 -21 -70 0 -12 -6 -30
-13 -41 -7 -11 -22 -49 -32 -85 -10 -36 -33 -94 -50 -130 -32 -65 -33 -83 -9
-108 11 -10 10 -20 -2 -54 -8 -23 -18 -46 -23 -52 -5 -6 -25 -42 -45 -81 -20
-38 -54 -95 -76 -125 -21 -30 -37 -57 -34 -59 8 -8 64 59 107 128 22 36 47 70
54 74 7 4 13 17 13 27 0 23 21 72 34 82 20 14 35 -28 36 -95 0 -61 -4 -75 -41
-140 -22 -40 -48 -80 -56 -90 -18 -19 -30 -39 -64 -107 -22 -45 -64 -89 -85
-90 -6 0 -17 7 -24 15 -11 13 -10 15 6 9 15 -5 16 -4 4 4 -8 6 -19 7 -25 3 -5
-5 -19 -11 -30 -13 -11 -2 -20 -8 -20 -13 -1 -23 -27 -55 -45 -55 -23 0 -35
-20 -44 -74 l-7 -38 53 54 c54 55 158 114 183 104 8 -3 22 -17 31 -31 15 -22
16 -32 6 -59 -7 -18 -12 -40 -12 -48 0 -9 -4 -18 -8 -20 -5 -1 -36 -34 -69
-73 -33 -38 -72 -76 -87 -84 -15 -8 -25 -20 -22 -27 3 -7 -2 -10 -14 -7 -10 3
-21 0 -25 -6 -3 -6 -1 -10 6 -9 28 7 15 -24 -47 -108 -37 -49 -76 -97 -88
-107 -12 -10 -22 -28 -22 -39 -1 -18 1 -18 22 6 13 14 24 28 24 31 0 3 18 21
40 41 22 20 49 52 61 72 26 42 79 96 79 80 0 -6 -29 -57 -65 -113 -36 -56 -65
-105 -65 -108 0 -23 -128 -190 -175 -230 -32 -26 -59 -46 -61 -44 -2 1 1 22 7
45 5 24 7 47 4 51 -2 5 14 28 36 51 51 53 77 109 57 121 -7 5 -21 9 -30 9 -29
0 -20 27 14 44 17 9 37 16 45 16 17 0 16 10 -2 34 -12 16 -12 22 1 47 30 59
-45 15 -80 -46 -10 -16 -35 -43 -57 -59 -26 -18 -49 -46 -63 -80 -42 -93 -66
-141 -86 -176 -11 -19 -21 -39 -23 -45 -3 -5 -7 -8 -10 -5 -4 3 0 30 8 60 17
64 19 110 5 110 -5 0 -10 -4 -10 -8 0 -5 -28 -42 -61 -82 -34 -40 -65 -84 -68
-99 -4 -14 -16 -28 -27 -31 -38 -10 -64 -35 -64 -60 0 -14 -13 -40 -30 -59
-26 -28 -33 -31 -46 -20 -9 8 -13 21 -10 35 4 14 1 24 -8 27 -17 7 -26 -1 -26
-22 0 -9 -14 -29 -31 -44 -30 -26 -32 -52 -3 -40 8 3 13 8 10 10 -2 3 5 14 16
25 16 16 22 18 29 7 12 -20 1 -48 -37 -94 -61 -73 -74 -90 -108 -140 -36 -55
-49 -92 -35 -101 5 -3 10 0 10 5 2 18 5 25 19 53 11 23 16 25 32 17 15 -8 23
-5 38 13 11 13 20 28 20 33 1 11 50 50 50 40 0 -4 -16 -30 -35 -59 -19 -29
-35 -56 -35 -60 0 -4 -16 -23 -36 -42 -19 -20 -37 -45 -39 -55 -3 -17 1 -18
46 -14 38 4 50 2 46 -8 -2 -6 -11 -11 -20 -11 -24 2 -33 -53 -12 -76 13 -14
13 -19 3 -24 -10 -5 -10 -7 -1 -12 9 -4 6 -16 -11 -42 -12 -20 -31 -54 -40
-74 -12 -24 -28 -40 -48 -47 -17 -6 -33 -9 -36 -6 -12 11 -43 -18 -40 -38 2
-17 -2 -22 -19 -21 -17 0 -23 -5 -23 -20 0 -12 -5 -28 -10 -36 -8 -13 -10 -12
-10 3 0 23 -18 22 -39 -4 -15 -19 -18 -19 -30 -5 -17 21 -17 51 1 108 12 36
13 45 3 42 -7 -3 -21 4 -32 15 -11 11 -35 22 -58 24 -33 3 -41 8 -43 27 -3 17
0 21 12 17 20 -8 20 2 1 27 -8 11 -15 29 -15 41 0 22 -34 45 -65 45 -8 0 -15
5 -15 10 0 14 -53 13 -67 -1 -9 -9 -14 -3 -21 22 -7 26 -6 37 4 45 8 6 14 22
14 36 0 21 -4 24 -27 21 -41 -6 -82 13 -95 44 -6 16 -11 31 -10 35 1 4 -5 5
-13 2 -8 -4 -12 -10 -9 -15 3 -5 1 -9 -5 -9 -6 0 -8 -6 -5 -14 8 -22 -15 -30
-35 -12 -22 20 -31 20 -31 1 0 -8 -12 -22 -26 -32 -35 -22 -86 -135 -86 -185
1 -23 -47 -36 -59 -17 -11 17 -1 51 18 62 11 7 13 19 8 50 -4 23 -11 46 -16
51 -11 13 -38 -22 -39 -49 0 -11 -6 -31 -13 -45 -8 -14 -16 -39 -20 -55 -9
-49 -28 -90 -35 -79 -4 5 -20 19 -35 31 -27 21 -30 21 -53 6 -23 -15 -26 -15
-39 3 -23 31 -18 37 29 32 34 -4 46 -2 51 10 6 17 -21 52 -41 52 -24 0 -26 22
-5 51 19 26 21 37 15 109 -4 44 -11 80 -15 80 -5 0 -9 -4 -9 -10 0 -5 -6 -8
-12 -6 -7 1 -10 1 -5 -1 15 -9 6 -34 -15 -43 -13 -5 -18 -9 -12 -9 6 -1 11 -8
11 -16 0 -17 -13 -20 -22 -5 -3 6 -13 10 -20 10 -11 0 -14 -14 -12 -59 1 -33
-2 -63 -6 -67 -4 -4 -21 6 -38 22 -23 23 -30 40 -32 72 0 23 -4 42 -7 43 -9 2
-84 10 -100 11 -8 1 -21 8 -28 17 -11 14 -11 14 -6 -1 4 -13 -4 -22 -35 -35
-23 -10 -39 -22 -37 -28 4 -13 48 -8 57 7 13 21 50 -21 43 -48 -3 -13 -1 -37
5 -54 12 -37 -2 -86 -21 -73 -7 4 -19 8 -27 10 -8 1 -18 8 -22 15 -7 11 -9 11
-9 0 0 -7 -5 -10 -12 -6 -6 4 -8 3 -4 -4 3 -6 -4 -18 -16 -26 -12 -9 -24 -12
-28 -7 -3 5 -18 7 -33 6 -42 -5 -28 16 24 34 54 20 89 39 89 50 0 9 -19 17
-95 41 -22 7 -42 17 -45 21 -6 8 -82 14 -158 11 -31 -2 -48 -8 -64 -27 -12
-14 -29 -25 -38 -25 -9 0 -25 -9 -35 -20 -17 -19 -17 -21 0 -40 10 -11 24 -20
32 -20 16 0 17 -16 3 -25 -7 -4 -7 -11 -2 -18 5 -7 8 -20 7 -29 -2 -10 1 -18
5 -18 20 0 64 22 76 38 12 16 13 15 14 -4 0 -15 -9 -23 -36 -30 -32 -8 -34
-11 -21 -28 13 -18 15 -17 50 14 27 23 37 28 37 16 0 -9 -4 -16 -9 -16 -12 0
-40 -61 -34 -76 4 -10 -4 -12 -31 -7 -33 5 -36 4 -36 -19 0 -31 -40 -36 -58
-8 -10 17 -8 22 18 42 36 26 38 48 8 81 l-22 25 -43 -29 c-24 -17 -43 -26 -43
-20 0 5 -9 7 -20 4 -11 -3 -20 0 -20 6 0 6 4 11 10 11 11 0 50 36 50 47 0 3 8
15 18 26 16 19 16 19 -8 12 -32 -10 -51 -25 -45 -36 3 -4 -5 -13 -17 -20 -21
-11 -22 -11 -9 4 23 29 0 19 -55 -23 -67 -51 -87 -53 -64 -9 6 10 8 19 6 19
-16 0 -104 -63 -112 -79 -11 -24 -75 -92 -100 -108 -10 -6 -18 -16 -17 -22 5
-19 -31 -29 -79 -22 -34 6 -51 4 -61 -6 -10 -10 -20 -11 -39 -4 -25 9 -30 6
-74 -55 -46 -63 -48 -64 -86 -60 -29 4 -38 1 -38 -10 0 -8 -12 -42 -26 -77
-14 -34 -27 -80 -30 -102 -3 -22 -12 -54 -21 -72 -8 -18 -13 -38 -11 -45 3 -7
-1 -26 -7 -43 -7 -16 -18 -63 -25 -104 -10 -59 -10 -78 1 -97 11 -21 10 -26
-6 -37 -10 -8 -19 -30 -21 -53 -7 -78 -17 -144 -22 -140 -2 3 -6 27 -8 53 -2
26 -8 72 -14 102 -5 30 -10 71 -10 90 -1 20 -8 54 -16 76 -9 22 -24 69 -34
105 -29 103 -82 227 -144 332 -31 54 -56 104 -56 111 0 16 -191 204 -235 232
-74 47 -104 85 -42 54 12 -6 4 5 -18 25 -22 19 -34 36 -27 36 21 0 13 14 -19
33 -18 10 -30 20 -27 22 9 9 68 -26 68 -41 0 -8 9 -14 21 -14 11 0 39 -16 62
-35 43 -37 69 -47 46 -18 -11 15 -9 14 11 -2 39 -30 106 -104 152 -168 24 -31
47 -57 53 -57 17 0 115 -120 115 -140 0 -24 -23 -3 -34 30 -7 19 -18 34 -25
32 -8 -1 -10 2 -5 10 4 7 4 10 -1 6 -4 -4 -14 0 -22 10 -12 15 -13 14 -2 -8 6
-14 23 -45 37 -69 14 -25 27 -52 27 -62 1 -9 9 -24 18 -34 16 -15 21 -29 18
-48 -1 -4 8 -27 19 -52 11 -24 20 -52 20 -62 0 -32 32 -103 47 -103 8 0 12 4
9 9 -3 5 1 11 9 14 10 4 13 21 12 60 -1 39 3 60 14 73 17 19 30 77 34 149 1
22 5 48 9 58 5 11 4 17 -4 17 -6 0 -9 -4 -6 -9 7 -10 -32 -47 -40 -38 -4 4 -1
14 6 22 11 13 11 16 0 13 -23 -5 -30 59 -31 299 -1 127 -5 237 -9 244 -5 6 -2
30 6 52 8 22 14 50 14 63 0 28 36 68 54 61 15 -6 114 78 104 88 -3 3 -13 -1
-21 -10 -17 -16 -27 -19 -27 -7 0 4 35 25 78 46 42 21 84 42 92 47 55 32 81
41 93 31 7 -5 21 -6 32 -1 18 7 18 8 -4 8 -24 1 -24 1 -5 15 17 13 20 12 31
-7 12 -21 12 -20 13 11 0 20 6 35 15 39 23 8 31 -5 17 -27 -13 -21 -6 -53 10
-44 6 4 5 10 -3 15 -11 7 -10 9 4 9 19 0 22 13 8 39 -13 24 -6 32 75 79 78 46
94 52 64 22 -20 -20 -27 -50 -11 -50 5 0 12 10 16 23 6 19 8 20 12 4 3 -10 -1
-24 -7 -32 -17 -21 -4 -19 41 7 21 11 36 25 34 29 -3 4 4 5 14 2 25 -6 211 84
211 102 0 19 13 25 38 18 34 -8 27 -19 -30 -43 -29 -12 -64 -31 -77 -41 -13
-11 -30 -19 -38 -19 -25 0 -63 -43 -63 -71 0 -20 -6 -28 -25 -31 -30 -6 -37 9
-18 39 14 21 14 22 -14 14 -55 -17 -116 -55 -80 -50 36 5 78 -2 72 -12 -5 -7
5 -8 29 -4 40 8 40 7 27 -28 -6 -15 -6 -37 -1 -54 4 -15 9 -21 9 -13 1 8 10 0
21 -18 22 -36 27 -68 7 -41 -7 9 -18 14 -26 11 -10 -3 -12 0 -7 13 4 13 2 16
-9 11 -9 -3 -15 0 -15 9 0 8 -6 18 -12 22 -18 12 -38 49 -38 73 0 23 -15 27
-24 5 -3 -8 -9 -14 -13 -13 -4 2 -23 -3 -40 -10 -18 -6 -47 -17 -63 -23 -28
-11 -29 -13 -15 -29 17 -19 20 -34 4 -24 -8 4 -8 0 0 -15 13 -24 23 -28 15 -6
-4 8 -1 15 5 15 6 0 11 12 11 28 1 26 1 26 15 8 11 -14 12 -22 4 -27 -8 -4 -4
-11 10 -18 12 -7 25 -10 30 -7 17 11 81 -17 81 -35 0 -13 5 -16 17 -12 13 5
15 2 10 -18 l-6 -24 20 25 c11 14 19 21 18 15 -3 -22 2 -26 17 -11 8 9 20 14
25 11 5 -4 9 -2 9 3 0 5 33 19 73 32 90 29 92 31 76 41 -18 11 -9 18 25 21 16
2 25 7 22 15 -7 17 18 6 33 -16 12 -16 16 -17 40 -5 22 12 26 12 29 -1 4 -19
42 -20 42 -2 0 15 75 41 90 32 6 -3 10 -12 10 -20 0 -7 13 -1 31 16 31 29 41
33 68 29 26 -3 91 32 91 50 0 13 9 17 44 16 l43 -1 -39 -39 c-21 -21 -37 -40
-36 -42 8 -7 117 23 152 42 23 13 52 29 66 36 14 7 60 34 103 60 42 26 77 45
77 43 0 -3 27 15 61 40 34 25 65 45 70 45 11 0 87 48 107 67 7 7 24 16 37 19
14 3 27 15 30 25 4 10 13 19 21 19 8 0 23 9 35 21 16 16 18 23 9 34 -7 8 -9
19 -6 24 4 5 3 12 -2 15 -7 4 -8 121 -2 121 1 0 4 13 6 29 2 16 6 36 10 45 4
9 9 25 11 36 6 39 9 50 17 63 5 8 3 11 -5 10 -7 -2 -12 7 -12 22 0 34 13 61
25 54 6 -4 5 2 -1 14 -9 17 -7 28 9 55 21 35 22 34 -22 38 -7 1 -25 -2 -40 -6
-17 -4 -28 -3 -28 3 0 17 29 35 49 29 22 -5 32 11 24 41 -2 11 0 23 7 27 7 4
11 1 9 -6 -1 -8 -1 -25 0 -38 1 -20 4 -22 13 -13 9 9 9 15 1 23 -13 13 -6 42
8 33 5 -3 9 0 9 6 0 6 -6 10 -12 8 -7 -2 -13 2 -13 7 0 6 4 9 9 7 5 -2 6 5 2
14 -5 12 -2 15 11 10 10 -4 14 -4 10 0 -4 4 0 16 9 26 14 15 15 20 3 35 -8 9
-9 14 -4 11 7 -4 10 13 10 47 -1 45 1 52 12 43 8 -6 12 -17 9 -24 -3 -7 -1
-16 4 -19 6 -4 10 -1 10 4 0 6 6 11 14 11 8 0 18 5 22 12 5 7 2 9 -9 5 -11 -4
-14 -2 -10 8 3 8 9 12 14 9 6 -3 16 0 24 6 12 10 15 10 15 -1 0 -12 2 -12 9 0
6 10 10 10 16 1 5 -8 11 -6 20 7 7 10 11 21 9 24 -2 4 3 9 11 13 8 3 15 14 15
25 0 15 5 19 17 14 11 -4 14 -3 9 5 -4 7 -2 12 3 12 6 0 11 6 11 14 0 8 5 18
12 22 7 5 8 3 3 -7 -5 -8 0 -7 12 4 11 9 25 17 31 17 6 0 9 7 5 15 -3 9 -2 15
3 13 5 -1 28 8 50 20 23 11 44 19 48 17 3 -3 4 -2 1 1 -6 8 21 34 35 34 6 0 8
5 4 11 -4 8 1 9 16 4 15 -5 20 -3 16 3 -6 10 30 28 48 24 5 -2 18 5 29 15 11
10 17 12 13 6 -4 -8 -2 -11 6 -8 7 3 18 15 23 28 6 12 20 23 33 25 12 2 22 10
22 18 0 8 4 13 9 9 6 -3 14 3 20 12 6 10 11 15 11 11 0 -4 14 6 30 24 17 17
30 28 30 24 0 -4 7 -1 15 8 8 8 15 20 15 27 0 7 3 10 6 7 12 -12 104 96 104
123 0 5 11 25 24 42 13 18 32 60 41 95 10 34 20 62 24 62 3 0 7 10 7 23 3 34
8 51 19 59 6 5 5 8 -4 8 -11 0 -11 3 0 17 8 9 15 24 15 35 1 10 3 19 4 21 10
11 15 289 7 380 -4 35 -2 57 4 57 6 0 3 7 -5 16 -19 18 -21 28 -4 18 8 -5 9 0
5 15 -3 12 1 27 9 35 8 8 11 22 8 31 -4 10 -1 21 7 26 11 7 11 9 1 9 -7 0 -10
5 -7 10 8 13 25 3 25 -16z m-1972 -41 c-4 -22 -22 -20 -26 1 -2 10 3 16 13 16
10 0 15 -7 13 -17z m-28 -109 c0 -13 -9 -43 -20 -67 -11 -23 -21 -53 -22 -67
-4 -37 -34 -56 -35 -22 -2 25 36 164 49 179 14 18 28 7 28 -23z m-1470 -4 c0
-5 -4 -10 -9 -10 -6 0 -13 5 -16 10 -3 6 1 10 9 10 9 0 16 -4 16 -10z m-3412
-131 c-10 -5 -18 -15 -18 -21 0 -7 4 -7 14 1 10 9 15 8 20 -4 3 -8 11 -15 18
-14 10 0 10 2 1 6 -18 7 -16 30 2 30 8 0 15 -8 15 -18 0 -10 5 -21 12 -25 8
-5 9 -2 5 10 -4 10 -3 15 3 11 14 -9 12 -45 -2 -45 -10 0 -10 -2 0 -8 7 -5 14
-19 17 -31 2 -13 11 -34 20 -47 17 -27 19 -38 5 -29 -6 4 -9 -5 -8 -19 1 -15
8 -26 15 -26 7 0 13 -5 13 -11 0 -5 -5 -7 -11 -3 -8 4 -9 -1 -3 -17 4 -13 9
-41 9 -61 1 -21 5 -41 10 -45 4 -5 5 -2 0 6 -5 9 -3 12 5 9 7 -2 14 -12 16
-21 1 -9 -2 -15 -7 -11 -5 3 -9 -2 -9 -11 0 -9 4 -14 8 -11 5 3 7 -13 5 -34
-1 -21 2 -42 7 -45 15 -9 12 -27 -2 -20 -7 4 -5 0 4 -8 9 -7 19 -31 22 -53 2
-21 5 -40 7 -41 1 -2 2 -8 3 -14 0 -6 9 -16 19 -23 9 -7 17 -16 17 -19 0 -4
-8 -4 -17 -1 -15 5 -15 3 1 -10 11 -9 15 -16 9 -16 -15 0 -5 -34 16 -57 10
-10 16 -24 13 -31 -2 -8 19 -36 47 -63 28 -27 45 -49 38 -49 -6 0 1 -9 17 -19
17 -11 33 -18 38 -15 10 7 50 -15 44 -24 -3 -5 4 -9 15 -9 12 -1 17 3 13 10
-3 7 1 4 9 -6 8 -9 27 -19 43 -21 16 -2 49 -12 73 -22 54 -21 108 -23 103 -3
-2 8 -1 11 3 7 4 -3 37 4 73 17 61 21 68 22 73 7 3 -9 3 -29 -2 -45 -4 -15 -8
-30 -9 -34 -1 -3 12 -12 29 -19 17 -7 31 -20 31 -29 0 -8 5 -15 11 -15 5 0 7
6 4 13 -4 6 3 2 14 -11 27 -31 72 -34 89 -8 12 18 13 19 7 2 -4 -14 -2 -16 7
-9 13 11 50 3 48 -10 -2 -18 19 -40 41 -43 35 -4 35 -4 20 -13 -20 -13 -5 -30
21 -23 15 4 19 2 13 -7 -6 -11 -3 -11 16 0 13 6 40 11 60 11 30 -2 42 4 62 28
14 16 27 35 29 41 2 7 26 12 56 13 45 2 52 -1 52 -17 0 -11 -4 -15 -11 -11 -7
4 -10 1 -7 -7 3 -8 11 -13 17 -11 6 1 11 -3 11 -9 0 -6 15 0 34 14 38 30 86
45 86 28 0 -6 -5 -11 -11 -11 -5 0 -7 -5 -4 -11 4 -6 -2 -13 -13 -16 -14 -3
-18 -11 -15 -24 4 -15 2 -18 -12 -13 -10 4 -21 1 -26 -7 -13 -20 -11 -31 4
-23 6 4 1 -5 -12 -19 -22 -24 -21 -32 2 -28 11 2 9 -17 -3 -24 -6 -4 -8 -11
-4 -16 3 -5 10 -7 15 -4 5 4 9 2 9 -4 0 -5 -4 -13 -10 -16 -20 -12 -10 -45 16
-51 16 -4 23 -12 20 -20 -3 -7 7 -28 22 -46 15 -17 26 -33 25 -35 -2 -2 -3 -9
-3 -15 0 -9 3 -8 10 2 5 8 12 11 16 7 10 -10 12 -67 3 -67 -5 0 -6 -7 -2 -16
4 -10 -1 -17 -14 -20 -21 -6 -53 -52 -53 -78 0 -19 -17 -49 -45 -82 -57 -65
-95 -125 -95 -150 0 -8 11 -19 24 -24 33 -12 36 -45 9 -108 -13 -29 -19 -51
-13 -47 18 11 10 -20 -10 -38 -11 -9 -23 -35 -26 -57 -5 -28 -15 -47 -30 -57
-13 -8 -21 -20 -18 -25 4 -6 0 -14 -7 -19 -11 -6 -1 -22 42 -66 31 -32 59 -66
62 -75 7 -19 83 -77 137 -105 19 -10 39 -24 43 -31 5 -7 12 -10 18 -7 5 4 14
-5 20 -18 6 -13 26 -32 45 -42 19 -10 34 -22 34 -27 0 -17 -36 -7 -109 31 -90
46 -148 66 -178 62 -13 -1 -23 2 -23 8 0 11 -35 9 -62 -3 -26 -12 -22 -23 12
-35 28 -9 30 -13 30 -62 0 -41 -3 -50 -15 -46 -8 4 -17 2 -20 -4 -4 -5 1 -12
9 -15 11 -4 13 -12 6 -29 -7 -20 -5 -24 15 -29 38 -10 43 -51 12 -84 -13 -15
-22 -33 -20 -39 7 -21 -15 -15 -27 6 -5 11 -10 34 -10 52 0 26 -2 30 -15 19
-8 -6 -29 -16 -47 -20 -18 -4 -41 -11 -51 -15 -14 -6 -17 -3 -15 15 4 32 -20
37 -28 6 -3 -14 -10 -26 -15 -26 -5 0 -9 -9 -9 -20 0 -22 -26 -28 -33 -7 -6
17 -93 -30 -113 -61 -9 -13 -22 -21 -29 -18 -8 3 -17 1 -20 -4 -3 -5 -13 -6
-22 -3 -11 4 -14 3 -9 -5 4 -7 1 -12 -8 -12 -8 0 -18 5 -21 11 -4 5 -18 14
-32 20 -13 5 -22 13 -19 18 8 12 -31 44 -43 36 -6 -3 -11 0 -11 8 0 22 -28 40
-60 39 -21 0 -30 4 -30 15 0 9 -6 13 -15 9 -12 -4 -15 3 -15 35 0 44 -24 89
-48 89 -8 0 -12 3 -9 6 4 4 -2 19 -13 34 -11 15 -21 44 -22 64 -2 20 -5 36 -8
36 -3 0 -11 9 -18 21 -11 17 -11 20 0 13 7 -4 2 6 -12 22 -30 34 -64 94 -54
94 3 0 1 7 -6 16 -7 8 -25 14 -39 12 -18 -2 -27 -11 -33 -35 -10 -37 -33 -36
-73 4 -21 22 -26 23 -31 9 -4 -9 -4 -20 0 -23 3 -3 0 -13 -7 -21 -9 -13 -9
-14 1 -8 6 4 12 2 12 -3 0 -15 -14 -14 -58 5 -20 8 -50 14 -67 14 -54 -3 -62
0 -75 28 -15 31 -19 45 -22 87 -1 17 -6 36 -11 43 -6 7 -7 15 -4 19 4 3 -1 19
-11 35 -15 25 -15 30 -2 38 13 8 12 10 -2 10 -12 0 -15 5 -11 16 4 11 -8 29
-37 55 -51 47 -46 62 11 30 22 -13 47 -20 56 -17 14 6 12 11 -13 37 -74 79
-182 139 -250 139 -19 0 -44 5 -55 10 -17 10 -18 8 -9 -15 6 -15 15 -35 21
-46 8 -16 7 -26 -5 -44 -10 -16 -12 -26 -5 -30 6 -4 7 -19 4 -36 -5 -22 -3
-29 9 -29 9 0 16 -3 17 -7 5 -49 3 -70 -8 -81 -11 -11 -14 -10 -20 5 -12 32
-64 91 -87 97 -40 11 -46 20 -37 54 6 20 6 44 -1 66 -9 29 -8 40 6 61 15 22
24 26 52 23 19 -2 34 -2 34 0 0 2 -13 20 -28 40 -28 37 -49 85 -59 132 -5 22
1 19 46 -25 48 -46 53 -49 74 -36 20 13 21 13 8 -2 -9 -12 -10 -17 -2 -17 7 0
10 -4 7 -9 -13 -20 13 -58 43 -64 17 -4 39 -14 48 -24 20 -19 103 -63 121 -63
6 0 12 6 15 13 7 21 -4 37 -26 37 -11 0 -17 3 -14 7 9 8 -42 63 -58 63 -6 0
-21 9 -33 20 -12 12 -22 18 -22 14 0 -4 -8 0 -18 9 -10 10 -21 14 -24 11 -6
-5 -7 9 -7 79 -1 28 -17 67 -33 78 -5 3 -3 13 6 22 14 14 14 16 0 21 -10 4
-13 13 -9 26 3 11 2 20 -3 20 -6 0 -8 9 -5 20 3 11 1 20 -5 20 -9 0 -27 47
-24 63 1 4 -2 7 -7 7 -5 0 -12 17 -16 37 -4 21 -12 47 -18 58 -6 11 -12 25
-12 30 -1 6 -7 24 -14 40 -7 17 -13 41 -14 55 -1 13 -9 33 -17 43 -8 10 -14
20 -12 22 1 3 -5 21 -13 41 -8 20 -12 40 -9 45 3 5 1 9 -4 9 -5 0 -15 18 -22
41 -8 22 -22 47 -33 54 -15 10 -18 20 -13 41 4 16 3 30 -4 34 -7 4 -7 16 1 38
8 23 8 41 0 63 -10 28 -9 30 11 23 12 -3 61 -40 110 -82 71 -61 91 -73 99 -61
5 8 8 21 7 29 -1 8 1 29 5 45 4 17 10 55 12 85 3 30 8 80 11 110 3 30 6 72 7
92 1 21 5 38 8 38 3 0 5 30 4 66 0 36 2 67 6 70 6 3 10 19 26 104 2 13 9 27
14 31 6 3 10 8 10 10 -2 15 13 48 20 43 5 -3 9 6 9 20 0 14 5 26 11 26 6 0 9
7 6 14 -4 10 -1 13 9 9 10 -3 12 0 8 10 -3 9 4 25 15 36 12 12 16 21 10 21 -6
0 -3 7 5 16 9 8 16 21 16 28 0 15 20 36 35 36 5 0 2 -5 -7 -11z m4822 -140 c0
-11 -29 -19 -34 -10 -3 5 -3 10 -1 13 8 7 35 5 35 -3z m28 -95 c7 -38 19 -76
26 -84 15 -17 29 -107 30 -197 1 -35 4 -63 9 -63 9 0 131 90 202 149 71 59 79
51 15 -16 -30 -31 -47 -51 -37 -44 24 19 21 1 -5 -35 -56 -75 -122 -143 -187
-194 -39 -30 -71 -59 -71 -63 0 -5 -4 -5 -10 -2 -9 6 -44 -15 -103 -62 -16
-13 -37 -23 -48 -23 -16 0 -19 4 -14 23 6 17 -3 12 -39 -23 -26 -24 -44 -50
-42 -57 3 -7 -29 -38 -74 -73 -75 -56 -97 -69 -67 -38 8 7 17 25 20 40 7 26 6
27 -24 21 -21 -4 -34 -1 -40 8 -6 10 -8 7 -6 -11 4 -27 -32 -59 -112 -100 -23
-11 -51 -30 -62 -41 -12 -12 -27 -22 -34 -23 -7 -1 -30 -14 -51 -28 -22 -14
-55 -29 -74 -33 -19 -4 -75 -26 -125 -50 -49 -23 -100 -45 -112 -49 -13 -4
-23 -15 -23 -26 0 -10 -4 -20 -8 -22 -13 -5 -71 -114 -88 -164 -10 -30 -14
-63 -10 -93 17 -138 17 -171 2 -171 -8 0 -17 -9 -21 -19 -3 -11 -13 -25 -22
-33 -14 -11 -16 -10 -10 12 27 111 34 153 30 177 -2 15 -5 69 -7 118 -3 76 1
98 20 142 25 59 60 95 117 125 35 17 56 32 166 113 22 16 41 23 54 19 12 -4
17 -2 13 4 -3 5 2 12 12 16 9 3 44 24 77 46 69 45 143 84 165 84 8 1 14 7 13
14 -3 11 8 16 32 13 6 0 27 15 48 33 21 18 57 39 80 46 56 16 88 34 180 100
76 54 76 55 69 90 -4 19 -7 98 -7 175 0 167 22 276 61 301 13 9 27 13 33 10 5
-4 13 3 16 14 12 37 28 15 43 -56z m-2616 -52 c-7 -2 -12 -12 -12 -22 0 -10
-7 -21 -16 -24 -21 -8 -21 -8 -28 11 -8 21 30 54 53 45 10 -4 11 -7 3 -10z
m5625 -2 c-1 -11 -5 -20 -9 -20 -10 0 -10 4 -2 24 8 22 13 20 11 -4z m-2557
-15 c-7 -8 -17 -15 -22 -15 -6 0 -5 7 2 15 7 8 17 15 22 15 6 0 5 -7 -2 -15z
m-3139 -48 c-8 -8 -11 -7 -11 4 0 20 13 34 18 19 3 -7 -1 -17 -7 -23z m5684
23 c-3 -5 -11 -10 -16 -10 -6 0 -7 5 -4 10 3 6 11 10 16 10 6 0 7 -4 4 -10z
m-3551 -52 c-3 -11 -2 -18 3 -15 11 7 1 -92 -11 -111 -4 -7 -10 -28 -13 -45
-3 -18 -8 -34 -13 -37 -4 -3 -11 -16 -15 -30 -7 -23 -91 -160 -114 -186 -5 -7
-8 -14 -6 -16 2 -2 -21 -30 -51 -62 -30 -33 -54 -63 -54 -68 0 -4 -7 -8 -15
-8 -9 0 -18 -7 -22 -15 -7 -20 -147 -87 -151 -74 -3 6 -9 5 -18 -2 -11 -9 -14
-9 -14 1 0 7 -7 10 -17 5 -14 -4 -15 -3 -7 5 7 7 9 24 4 45 -4 20 -3 38 2 43
6 6 11 22 11 37 0 28 31 98 40 89 3 -3 3 3 0 15 -3 12 -1 21 5 21 5 0 17 18
26 40 10 24 22 40 33 40 9 0 13 3 10 7 -10 9 34 63 100 125 139 130 170 158
180 158 4 1 22 13 40 28 40 35 77 40 67 10z m-1919 -116 c-6 -78 -17 -99 -15
-27 1 28 1 52 0 55 -1 3 -3 17 -4 32 -1 21 1 24 11 16 9 -7 11 -30 8 -76z
m-139 -81 c-11 -18 -36 -13 -36 7 0 10 3 22 7 26 10 10 37 -20 29 -33z m11
-107 c-3 -3 -12 -4 -19 -1 -8 3 -5 6 6 6 11 1 17 -2 13 -5z m-2731 -46 c23
-45 12 -43 -15 4 -12 22 -18 37 -12 34 6 -4 18 -21 27 -38z m2544 -30 c0 -5
-9 -4 -20 2 -24 13 -25 4 -5 -44 24 -57 8 -42 -22 22 -37 78 -37 83 8 54 21
-14 39 -29 39 -34z m284 47 c-4 -8 -11 -15 -16 -15 -6 0 -5 6 2 15 7 8 14 15
16 15 2 0 1 -7 -2 -15z m-224 -77 c0 -12 -6 -9 -26 13 -19 22 -19 22 4 8 12
-8 22 -17 22 -21z m-1840 -8 c0 -5 -2 -10 -4 -10 -3 0 -8 5 -11 10 -3 6 -1 10
4 10 6 0 11 -4 11 -10z m1860 -51 c0 -6 -4 -7 -10 -4 -5 3 -10 11 -10 16 0 6
5 7 10 4 6 -3 10 -11 10 -16z m5721 -86 c-10 -17 -10 -16 -11 3 0 23 13 41 18
25 2 -6 -1 -18 -7 -28z m-45 -59 c-4 -9 -9 -15 -11 -12 -3 3 -3 13 1 22 4 9 9
15 11 12 3 -3 3 -13 -1 -22z m40 -80 c-4 -13 -11 -24 -16 -24 -10 0 -6 55 6
85 8 18 9 17 12 -9 2 -15 1 -39 -2 -52z m-6317 -18 c8 -10 9 -16 1 -21 -6 -4
-9 -1 -8 7 2 7 -3 12 -10 10 -8 -1 -11 2 -7 8 8 13 10 13 24 -4z m-179 -7 c0
-10 -39 -18 -45 -9 -2 4 -3 9 0 11 7 7 45 5 45 -2z m6484 -34 c-4 -8 -8 -15
-10 -15 -2 0 -4 7 -4 15 0 8 4 15 10 15 5 0 7 -7 4 -15z m-6211 -22 c-7 -2
-13 -11 -13 -19 0 -8 -4 -14 -10 -14 -5 0 -10 4 -10 8 0 12 22 32 35 31 5 0 4
-3 -2 -6z m1430 -75 c192 -102 226 -122 243 -146 13 -18 13 -22 -1 -30 -14 -7
-12 -12 10 -36 14 -15 25 -30 26 -34 0 -4 2 -81 5 -172 3 -109 1 -160 -5 -150
-6 8 -13 40 -16 70 -8 69 -25 116 -36 99 -5 -9 -12 -4 -21 16 -10 23 -10 29 0
33 11 3 11 7 0 21 -21 25 -60 129 -53 141 3 5 13 10 20 10 8 0 12 6 9 14 -3 8
-13 12 -23 9 -15 -4 -18 1 -16 21 3 20 -6 33 -33 54 -31 24 -119 59 -130 52
-2 -1 -16 9 -30 22 -15 14 -48 37 -74 52 -27 15 -48 29 -48 32 0 10 42 -9 173
-78z m-1258 -36 c-3 -3 -18 7 -33 23 l-27 28 33 -23 c18 -12 31 -25 27 -28z
m-215 -76 c0 -2 -9 -6 -20 -9 -11 -3 -18 -1 -14 4 5 9 34 13 34 5z m3001 -11
c5 4 6 -2 2 -11 -4 -12 -3 -15 5 -10 7 4 12 2 12 -4 0 -7 -7 -10 -14 -7 -10 4
-22 -6 -35 -26 -11 -18 -31 -43 -45 -56 -14 -14 -26 -29 -26 -35 0 -6 9 0 20
14 21 27 27 21 10 -11 -17 -32 7 -22 26 10 10 17 21 28 26 25 4 -3 6 1 3 8 -5
13 70 98 86 98 18 0 8 -26 -27 -70 -20 -25 -53 -67 -74 -95 -21 -27 -67 -80
-102 -117 -36 -36 -68 -78 -72 -93 -4 -15 -16 -29 -26 -32 -11 -3 -17 -10 -14
-15 6 -9 -36 -52 -44 -44 -2 3 6 21 18 40 12 20 19 36 16 36 -4 0 -27 -19 -51
-41 -52 -48 -59 -43 -14 8 16 19 27 38 24 41 -3 4 -10 0 -15 -8 -6 -8 -10 -12
-10 -8 0 4 20 35 44 70 24 35 53 81 64 103 12 22 41 61 65 87 24 25 63 72 87
103 24 32 46 52 48 46 2 -6 8 -9 13 -6z m-2921 -5 c0 -5 -5 -10 -11 -10 -5 0
-7 5 -4 10 3 6 8 10 11 10 2 0 4 -4 4 -10z m-40 -4 c0 -6 -66 -46 -76 -46 -5
0 -2 5 6 10 13 9 13 10 0 11 -8 0 1 7 20 14 38 15 50 17 50 11z m4045 -214
c-3 -3 -15 -7 -27 -9 -17 -3 -19 -1 -9 11 7 8 19 12 27 9 8 -3 12 -8 9 -11z
m-1978 -14 c-3 -8 -6 -5 -6 6 -1 11 2 17 5 13 3 -3 4 -12 1 -19z m-392 -98 c1
-16 -2 -30 -6 -30 -4 0 -9 14 -11 30 -3 18 0 30 6 30 6 0 11 -13 11 -30z
m-950 -116 c0 -10 -8 -20 -17 -22 -18 -3 -26 27 -11 42 12 11 28 0 28 -20z
m1009 -50 c3 -8 2 -12 -4 -9 -6 3 -10 10 -10 16 0 14 7 11 14 -7z m1339 -108
c15 -3 25 -11 22 -17 -4 -5 1 -22 11 -37 10 -15 19 -31 19 -37 1 -5 6 -9 13
-7 7 1 12 -5 12 -13 0 -8 5 -15 12 -15 6 0 8 -3 5 -7 -4 -3 -18 4 -31 16 -14
13 -29 20 -35 17 -6 -4 -9 -1 -5 7 3 10 -5 18 -25 25 -35 12 -43 27 -10 17 15
-5 19 -4 15 4 -11 17 -34 13 -45 -6 -10 -17 -10 -17 -11 -1 0 9 4 19 10 23 13
8 1 35 -16 35 -8 0 -14 7 -14 16 0 15 2 15 23 2 12 -8 35 -18 50 -22z m-59
-44 c-4 -12 -12 -22 -18 -22 -7 0 -21 -7 -32 -16 -18 -15 -18 -15 0 -10 12 4
34 -4 60 -21 23 -15 43 -28 45 -30 2 -1 4 -16 6 -33 1 -17 5 -33 8 -36 3 -3 3
-12 0 -20 -3 -8 0 -14 6 -14 24 0 9 -19 -25 -30 -30 -10 -38 -9 -53 4 -10 10
-31 18 -47 19 -26 2 -29 -1 -26 -24 2 -15 -6 -36 -17 -50 -11 -13 -20 -18 -21
-11 0 6 5 12 10 12 17 0 -8 41 -51 82 -22 21 -39 42 -39 47 0 21 21 21 38 2
11 -14 33 -23 65 -27 44 -5 47 -3 48 18 2 42 -3 63 -17 71 -7 4 -11 14 -8 22
4 9 0 15 -7 15 -7 0 2 11 21 25 39 29 51 45 43 60 -4 7 -2 7 5 0 6 -6 9 -20 6
-33z m-1024 -42 c0 -22 -4 -40 -10 -40 -11 0 -13 39 -4 64 10 26 14 19 14 -24z
m930 26 c0 -2 -8 -10 -17 -17 -16 -13 -17 -12 -4 4 13 16 21 21 21 13z m390
-66 c0 -5 -2 -10 -4 -10 -3 0 -8 5 -11 10 -3 6 -1 10 4 10 6 0 11 -4 11 -10z
m-405 -10 c-3 -5 -1 -10 4 -10 6 0 11 -4 11 -9 0 -5 -16 -9 -36 -8 l-36 1 22
18 c24 19 45 24 35 8z m1128 -45 c-3 -9 -8 -14 -10 -11 -3 3 -2 9 2 15 9 16
15 13 8 -4z m-1103 -14 c0 -5 -7 -12 -16 -15 -14 -5 -15 -4 -4 9 14 17 20 19
20 6z m186 -106 c-3 -14 -1 -23 4 -20 5 3 12 -1 17 -8 4 -7 16 -16 25 -20 9
-3 16 -14 16 -24 -1 -10 8 -38 19 -63 36 -77 36 -78 -3 -66 -19 6 -34 17 -34
23 0 7 -4 13 -9 13 -26 0 -42 33 -36 74 6 34 3 45 -14 60 -16 15 -18 21 -9 28
9 5 7 8 -7 9 l-20 0 20 9 c32 14 36 12 31 -15z m-4879 -5 c3 -11 9 -20 14 -20
5 0 6 -7 3 -15 -9 -24 -24 -17 -24 10 0 16 -6 25 -16 25 -8 0 -12 5 -9 10 10
16 27 11 32 -10z m4373 -70 c0 -5 -5 -10 -11 -10 -5 0 -7 5 -4 10 3 6 8 10 11
10 2 0 4 -4 4 -10z m935 -90 c3 -5 -1 -10 -10 -10 -9 0 -14 -4 -11 -8 2 -4 -5
-9 -16 -9 -12 -1 -26 -7 -32 -14 -8 -9 -7 -10 7 -6 32 11 18 -4 -18 -19 -45
-18 -51 -18 -51 5 0 11 4 17 8 15 4 -3 8 -1 8 5 0 6 18 15 40 21 21 6 42 15
45 20 8 13 22 13 30 0z m-4838 -130 c10 -13 8 -16 -6 -16 -13 0 -17 6 -13 19
2 10 5 16 6 15 1 -2 7 -10 13 -18z m6360 -45 c-17 -35 -28 -31 -14 4 6 17 14
28 18 25 4 -2 2 -15 -4 -29z m-5327 15 c0 -5 -2 -10 -4 -10 -3 0 -8 5 -11 10
-3 6 -1 10 4 10 6 0 11 -4 11 -10z m6271 -73 c-17 -17 -24 -1 -10 25 12 21 14
21 17 4 2 -10 -1 -23 -7 -29z m-5852 -39 c8 3 11 0 7 -7 -4 -6 -3 -11 3 -11
19 0 64 -21 58 -26 -10 -10 -124 47 -124 62 0 11 5 10 21 -5 12 -10 27 -16 35
-13z m5836 12 c-4 -6 -11 -8 -16 -5 -5 4 -9 -5 -9 -19 0 -13 -6 -31 -13 -38
-7 -7 -22 -28 -32 -45 -11 -18 -25 -33 -33 -33 -7 0 -12 -6 -11 -12 1 -7 -3
-24 -9 -38 -6 -14 -11 -19 -12 -10 -1 9 -6 4 -12 -10 -9 -21 -12 -22 -15 -7
-6 22 30 96 61 130 13 14 21 28 18 31 -3 3 0 6 7 6 15 0 42 25 40 37 -3 18 2
23 22 23 11 0 17 -5 14 -10z m-5305 -181 c0 -6 -4 -7 -10 -4 -5 3 -10 11 -10
16 0 6 5 7 10 4 6 -3 10 -11 10 -16z m170 4 c0 -24 -17 -49 -27 -40 -4 5 -1
12 6 17 8 4 11 15 8 24 -4 9 -2 16 3 16 6 0 10 -8 10 -17z m165 -52 c19 -7 35
-16 35 -20 0 -13 -22 -28 -53 -35 -21 -5 -29 -2 -34 11 -4 10 -12 22 -20 26
-16 10 -17 27 -2 27 5 0 7 -4 4 -10 -3 -5 1 -10 10 -10 9 0 13 5 10 10 -4 6
-3 19 1 28 6 15 8 15 11 1 2 -8 19 -21 38 -28z m-219 -2 c19 -22 19 -22 -3 -8
-13 8 -23 17 -23 21 0 12 6 9 26 -13z m5030 -79 c-2 -39 0 -73 5 -76 5 -2 4
-17 -2 -32 -18 -48 -188 -382 -213 -419 -27 -40 -24 -63 8 -63 28 0 50 -15 42
-29 -4 -6 -4 -11 1 -10 4 0 35 32 68 72 33 39 76 87 95 107 49 48 221 183 227
177 2 -3 -2 -18 -11 -35 -16 -30 -30 -48 -106 -136 -25 -28 -63 -74 -85 -101
-21 -28 -66 -79 -100 -115 -71 -77 -156 -175 -203 -235 -19 -24 -45 -51 -58
-60 -18 -11 -23 -22 -19 -36 6 -19 -1 -23 -38 -19 -9 1 -32 -8 -50 -19 -36
-22 -113 -51 -138 -51 -12 0 -14 7 -11 30 5 33 -19 70 -45 70 -8 0 -11 4 -8
10 3 6 1 10 -4 10 -6 0 -11 -4 -11 -10 0 -5 -7 -10 -16 -10 -10 0 -14 6 -11
14 4 10 1 13 -9 9 -7 -3 -14 0 -14 6 0 6 15 11 34 11 19 0 38 4 41 10 3 5 1
10 -4 10 -6 0 -11 6 -11 14 0 17 -22 15 -46 -4 -16 -13 -17 -13 -9 0 4 8 17
25 28 37 17 19 18 25 7 38 -12 14 -15 14 -31 -1 -18 -16 -19 -16 -19 -1 0 10
-4 17 -8 17 -13 0 -30 -42 -26 -65 2 -11 -8 -39 -22 -62 -30 -52 -31 -87 -2
-107 32 -22 36 -20 40 17 4 47 34 47 86 -2 47 -45 44 -48 -40 -50 -105 -2
-218 108 -174 171 9 12 16 28 16 36 0 7 16 30 35 50 19 20 37 44 40 53 3 9 16
17 29 17 35 0 85 39 92 70 3 15 7 36 9 47 3 11 27 43 54 70 28 28 103 111 168
185 65 74 151 167 192 207 40 40 91 100 112 135 46 75 51 67 10 -17 -72 -145
-98 -215 -59 -162 16 22 23 25 29 15 7 -11 9 -10 9 1 0 8 6 22 13 30 17 21 83
177 92 219 12 57 24 34 21 -38z m-2406 25 c0 -8 -4 -15 -9 -15 -5 0 -11 7 -15
15 -3 9 0 15 9 15 8 0 15 -7 15 -15z m733 4 c41 -22 48 -46 15 -58 -19 -7 -25
-3 -40 25 -10 19 -18 36 -18 39 0 9 20 6 43 -6z m-2965 -58 c4 -27 -24 -28
-55 -2 -28 23 -28 28 -5 33 28 7 57 -8 60 -31z m162 -46 c19 -19 30 -35 24
-35 -19 1 -86 70 -67 70 5 0 24 -16 43 -35z m2740 0 c0 -8 -4 -15 -10 -15 -5
0 -10 7 -10 15 0 8 5 15 10 15 6 0 10 -7 10 -15z m-460 -26 c0 -3 -12 -11 -26
-18 -20 -9 -30 -9 -40 0 -17 14 -18 36 -2 41 14 5 68 -13 68 -23z m584 9 c10
-38 7 -88 -6 -88 -17 0 -48 31 -48 47 0 8 -6 13 -12 10 -7 -2 -12 -11 -12 -20
1 -8 -9 -20 -22 -26 -22 -10 -24 -8 -24 14 0 18 5 25 20 25 12 0 20 7 20 16 0
10 6 14 15 10 9 -3 15 0 15 9 0 11 12 18 41 24 4 0 9 -9 13 -21z m-837 -48
c-1 -11 -4 -20 -8 -20 -10 0 -19 27 -12 34 12 12 22 5 20 -14z m2323 -40 c0
-5 -5 -10 -11 -10 -5 0 -7 5 -4 10 3 6 8 10 11 10 2 0 4 -4 4 -10z m-1526 -12
c-3 -4 2 -8 10 -8 20 0 21 -34 3 -52 -8 -7 -12 -19 -9 -26 6 -18 -5 -15 -28
10 -12 13 -16 24 -10 28 6 4 2 15 -10 28 -27 29 -25 33 14 30 19 -1 32 -6 30
-10z m719 -43 c-18 -25 -41 -36 -27 -12 13 21 29 36 37 37 4 0 0 -11 -10 -25z
m-1233 -16 c0 -11 -4 -17 -10 -14 -5 3 -10 13 -10 21 0 8 5 14 10 14 6 0 10
-9 10 -21z m453 -19 c15 0 27 -4 27 -8 0 -4 -34 -8 -75 -9 -60 -1 -75 1 -75
13 0 23 40 33 69 17 14 -7 38 -13 54 -13z m274 -42 c-3 -8 -6 -5 -6 6 -1 11 2
17 5 13 3 -3 4 -12 1 -19z m-1376 -31 c-13 -13 -26 -3 -16 12 3 6 11 8 17 5 6
-4 6 -10 -1 -17z m-61 -7 c0 -11 -7 -20 -15 -20 -18 0 -19 12 -3 28 16 16 18
15 18 -8z m710 5 c-7 -9 -15 -13 -17 -11 -7 7 7 26 19 26 6 0 6 -6 -2 -15z
m543 -30 c9 -59 2 -73 -29 -67 -56 10 -41 104 17 111 4 1 9 -19 12 -44z m617
35 c0 -20 -24 -60 -36 -60 -9 0 -10 8 -1 35 9 31 37 50 37 25z m-7126 -49 c-6
-6 -24 19 -24 34 1 6 7 1 15 -9 8 -11 12 -22 9 -25z m6732 18 c3 -6 2 -15 -4
-21 -6 -6 -8 -18 -5 -27 4 -9 3 -13 -1 -10 -4 4 -11 20 -16 38 -7 24 -6 31 5
31 8 0 17 -5 21 -11z m39 1 c3 -5 1 -10 -4 -10 -6 0 -11 5 -11 10 0 6 2 10 4
10 3 0 8 -4 11 -10z m-2005 -28 c0 -21 -69 -58 -92 -49 -8 3 -4 8 12 15 14 5
34 19 44 31 24 26 36 27 36 3z m1650 -3 c0 -5 -7 -9 -15 -9 -9 0 -12 6 -9 15
6 15 24 11 24 -6z m-3662 -23 c-7 -8 -15 -12 -17 -11 -5 6 10 25 20 25 5 0 4
-6 -3 -14z m2932 -21 c0 -7 -8 -19 -17 -24 -16 -10 -16 -11 6 -17 22 -6 23
-10 17 -58 -4 -28 -21 -79 -38 -114 -16 -34 -28 -69 -25 -76 7 -17 -14 -27
-42 -19 -13 3 -21 1 -21 -7 0 -6 -7 -18 -15 -27 -13 -12 -13 -18 -3 -31 8 -10
9 -13 1 -9 -6 4 -13 3 -15 -2 -1 -4 -13 -12 -26 -16 -19 -6 -23 -4 -20 12 1
10 -1 19 -6 21 -6 1 -10 -10 -11 -25 -1 -16 -6 -37 -13 -48 -11 -20 -11 -20
-12 0 0 11 -14 33 -31 47 -25 23 -28 30 -20 47 17 32 14 47 -6 29 -27 -23 -93
-52 -101 -43 -4 3 -7 30 -7 58 0 34 -4 52 -14 55 -8 3 -11 0 -8 -5 6 -10 -27
-67 -35 -61 -3 2 -13 -4 -23 -12 -10 -8 -43 -23 -74 -32 -151 -45 -217 -82
-204 -114 10 -27 -7 -84 -25 -84 -12 0 -14 2 -4 8 9 7 8 13 -8 27 -18 16 -21
17 -44 1 -14 -9 -32 -16 -40 -16 -7 0 -17 -8 -20 -17 -5 -13 -9 -14 -15 -5
-10 16 -31 12 -52 -10 -22 -24 -27 -23 -21 7 2 14 0 25 -5 25 -5 0 -8 -16 -8
-35 1 -19 -3 -35 -9 -35 -5 0 -23 -12 -40 -27 l-30 -28 31 40 c17 22 32 47 33
55 4 27 0 41 -10 35 -5 -3 -10 0 -10 7 -1 17 -27 -17 -46 -57 -8 -16 -28 -46
-45 -65 l-31 -35 27 50 c25 44 108 151 139 180 6 6 27 30 45 55 61 80 213 206
307 253 106 52 170 69 231 63 32 -3 88 -8 125 -12 55 -5 72 -3 93 10 21 14 29
15 41 5 11 -9 14 -8 14 5 0 9 6 16 13 16 38 0 85 22 95 45 13 27 32 34 32 10z
m94 -1 c20 -20 21 -35 1 -28 -8 4 -15 1 -15 -5 0 -6 -7 -8 -15 -5 -23 9 -18
54 6 54 4 0 15 -7 23 -16z m-2906 -48 c34 -20 62 -39 62 -42 0 -3 -4 -3 -9 0
-5 4 -12 0 -14 -6 -4 -8 -8 -4 -12 10 -6 16 -15 22 -37 22 -18 0 -27 -4 -23
-11 4 -6 12 -8 19 -6 6 3 16 -5 22 -18 10 -21 10 -22 -15 -9 -14 8 -31 14 -38
14 -7 0 -22 10 -33 22 -18 19 -22 20 -30 8 -7 -12 -10 -11 -16 5 -4 11 -16 27
-27 36 -18 15 -16 16 34 14 42 -1 68 -10 117 -39z m3665 32 c2 -7 -1 -21 -7
-30 -9 -15 -12 -15 -29 5 -17 20 -17 22 0 28 26 11 31 10 36 -3z m-1503 -27
c0 -13 -28 -22 -35 -11 -3 4 1 11 7 13 20 8 28 8 28 -2z m1709 -14 c25 16 52
7 44 -14 -5 -13 -3 -13 15 -4 12 7 22 16 22 21 0 6 9 10 20 10 11 0 20 -7 20
-15 0 -8 -4 -15 -8 -15 -5 0 -24 -13 -42 -30 -18 -16 -44 -30 -57 -30 -33 0
-41 29 -15 51 12 9 22 21 22 25 0 4 -11 -3 -24 -15 -21 -19 -24 -20 -30 -6 -9
25 -7 42 4 25 8 -12 13 -13 29 -3z m323 -20 c-7 -8 -9 -17 -5 -20 3 -4 1 -7
-5 -7 -13 0 -17 42 -5 54 13 12 27 -12 15 -27z m-3957 -81 c11 -8 16 -15 10
-16 -5 0 -23 12 -40 26 -31 26 -6 18 30 -10z m4039 18 c3 -8 2 -12 -4 -9 -6 3
-10 10 -10 16 0 14 7 11 14 -7z m-1223 -36 c-1 -5 -1 -17 -1 -29 0 -11 -4 -17
-10 -14 -5 3 -7 0 -4 -8 3 -9 -9 -26 -31 -44 l-36 -30 20 -37 c23 -39 27 -66
11 -66 -5 0 -6 -8 -3 -17 6 -16 5 -16 -10 -4 -9 7 -17 23 -17 35 -1 25 -30 68
-31 45 0 -8 -4 -6 -9 6 -5 13 -3 24 6 31 8 6 14 20 14 30 0 16 2 17 10 4 8
-13 11 -11 16 7 4 13 10 21 14 18 12 -7 18 17 10 40 -5 13 -2 24 9 32 17 13
42 13 42 1z m-2841 -29 c0 -14 -16 -11 -29 5 -10 12 -8 13 8 9 12 -3 21 -9 21
-14z m2180 -123 c0 -3 -4 -8 -10 -11 -5 -3 -10 -1 -10 4 0 6 5 11 10 11 6 0
10 -2 10 -4z m1336 -108 c1 -19 -2 -25 -12 -21 -8 3 -14 11 -14 19 0 8 -6 13
-12 12 -9 -2 -14 14 -16 52 l-3 55 28 -45 c15 -25 28 -57 29 -72z m261 10 c-3
-8 -6 -5 -6 6 -1 11 2 17 5 13 3 -3 4 -12 1 -19z m-272 -66 c-5 -13 -2 -13 14
2 18 17 19 16 25 -46 4 -35 9 -80 12 -100 4 -23 2 -38 -5 -38 -5 0 -17 -15
-26 -33 -9 -19 -29 -43 -44 -55 -34 -25 -45 -17 -54 39 -4 28 -1 38 15 48 17
10 19 20 15 52 -3 22 -2 54 3 72 4 18 11 44 14 59 4 19 11 26 22 21 9 -3 13
-12 9 -21z m-2942 -25 c10 9 8 -10 -2 -26 -7 -11 -11 -10 -20 7 -15 28 -14 37
2 23 8 -6 17 -8 20 -4z m1677 -7 c0 -5 -7 -7 -15 -4 -8 4 -12 10 -9 15 6 11
24 2 24 -11z m667 7 c9 -9 -27 -36 -49 -37 -21 0 -22 4 -7 28 11 18 42 23 56
9z m-2882 -31 c-1 -12 -3 -24 -4 -28 -2 -15 -31 5 -31 21 0 21 6 28 24 28 7 0
12 -9 11 -21z m280 -6 c3 -5 1 -10 -4 -10 -6 0 -11 5 -11 10 0 6 2 10 4 10 3
0 8 -4 11 -10z m-390 -133 c-14 -32 -25 -64 -25 -72 0 -8 -7 -15 -15 -15 -21
0 -19 43 4 88 20 40 21 42 21 71 0 11 8 21 18 23 27 5 26 -31 -3 -95z m762 43
c1 -11 -2 -18 -8 -15 -11 7 -12 35 -1 35 4 0 8 -9 9 -20z m-3617 -20 c0 -5 -5
-10 -11 -10 -5 0 -7 5 -4 10 3 6 8 10 11 10 2 0 4 -4 4 -10z m4540 -12 c0 -7
-4 -20 -9 -28 -6 -8 -7 -19 -3 -25 7 -11 8 -15 18 -58 5 -22 3 -26 -9 -21 -9
3 -17 -1 -19 -10 -3 -13 -5 -13 -22 0 -26 19 -23 86 5 126 21 29 39 37 39 16z
m-104 -26 c-18 -16 -18 -16 -6 6 6 13 14 21 18 18 3 -4 -2 -14 -12 -24z m1734
18 c0 -5 -7 -10 -16 -10 -8 0 -12 5 -9 10 3 6 10 10 16 10 5 0 9 -4 9 -10z
m-1175 -20 c3 -5 1 -10 -4 -10 -6 0 -11 5 -11 10 0 6 2 10 4 10 3 0 8 -4 11
-10z m1326 -127 c-8 -15 -10 -15 -11 -2 0 17 10 32 18 25 2 -3 -1 -13 -7 -23z"/>
<path d="M6855 8753 c-5 -10 -10 -27 -12 -38 -5 -30 14 -5 22 28 8 30 1 36
-10 10z"/>
<path d="M3925 8101 c-3 -5 -1 -12 5 -16 5 -3 10 1 10 9 0 18 -6 21 -15 7z"/>
<path d="M6590 8540 c0 -5 5 -10 10 -10 6 0 10 5 10 10 0 6 -4 10 -10 10 -5 0
-10 -4 -10 -10z"/>
<path d="M5040 4088 c0 -9 5 -20 10 -23 13 -8 13 5 0 25 -8 13 -10 13 -10 -2z"/>
<path d="M4340 5179 c0 -5 5 -7 10 -4 6 3 10 8 10 11 0 2 -4 4 -10 4 -5 0 -10
-5 -10 -11z"/>
<path d="M4525 4790 c3 -5 8 -10 11 -10 2 0 4 5 4 10 0 6 -5 10 -11 10 -5 0
-7 -4 -4 -10z"/>
<path d="M9250 2950 c0 -5 5 -10 11 -10 5 0 7 5 4 10 -3 6 -8 10 -11 10 -2 0
-4 -4 -4 -10z"/>
<path d="M9230 2921 c0 -25 6 -27 13 -6 4 8 2 17 -3 20 -6 4 -10 -3 -10 -14z"/>
<path d="M5809 1843 c-1 -5 -2 -22 -3 -40 -1 -27 1 -30 16 -22 20 11 20 14 12
47 -6 21 -22 31 -25 15z"/>
<path d="M8320 1839 c0 -5 5 -7 10 -4 6 3 10 8 10 11 0 2 -4 4 -10 4 -5 0 -10
-5 -10 -11z"/>
<path d="M6995 1819 c-4 -6 -5 -13 -2 -16 7 -7 27 6 27 18 0 12 -17 12 -25 -2z"/>
<path d="M6648 1733 c-21 -5 -24 -33 -4 -33 8 0 21 7 29 15 8 8 18 11 22 7 5
-4 5 -1 1 6 -7 12 -17 13 -48 5z"/>
<path d="M8230 1720 c0 -11 7 -20 15 -20 8 0 15 9 15 20 0 11 -7 20 -15 20 -8
0 -15 -9 -15 -20z"/>
<path d="M6498 1664 c-38 -20 -36 -28 2 -9 17 9 30 18 30 20 0 7 -1 6 -32 -11z"/>
<path d="M7060 1580 c-13 -8 -13 -11 -1 -19 9 -6 11 -18 7 -35 -6 -25 -5 -26
14 -16 11 6 20 7 20 3 0 -4 4 -1 9 7 6 8 7 18 4 23 -3 5 -9 3 -14 -4 -6 -10
-9 -10 -9 -2 0 6 5 15 10 18 6 4 5 12 -4 21 -17 17 -17 16 -36 4z"/>
<path d="M6908 1513 c7 -3 16 -2 19 1 4 3 -2 6 -13 5 -11 0 -14 -3 -6 -6z"/>
<path d="M7005 1492 c-13 -8 -17 -52 -6 -52 19 0 42 27 35 43 -7 19 -13 21
-29 9z"/>
<path d="M6928 1461 c-3 -20 1 -32 13 -39 15 -10 19 -7 24 18 4 16 4 34 0 40
-12 20 -33 10 -37 -19z"/>
<path d="M8160 1359 c0 -5 5 -7 10 -4 6 3 10 8 10 11 0 2 -4 4 -10 4 -5 0 -10
-5 -10 -11z"/>
<path d="M7175 1350 c3 -5 8 -10 11 -10 2 0 4 5 4 10 0 6 -5 10 -11 10 -5 0
-7 -4 -4 -10z"/>
<path d="M7825 1350 c-3 -5 2 -35 11 -67 19 -66 59 -111 95 -107 13 1 30 3 37
3 24 2 25 32 2 57 -13 13 -28 24 -34 24 -17 1 -68 49 -62 59 4 5 3 16 0 25 -7
18 -39 22 -49 6z"/>
<path d="M6181 1326 c-10 -12 -8 -13 8 -9 12 3 18 9 15 14 -7 12 -10 11 -23
-5z"/>
<path d="M8106 1232 c-14 -22 -28 -51 -31 -65 -6 -20 -2 -25 19 -29 32 -6 52
8 60 46 6 25 5 28 -13 23 -24 -6 -29 21 -9 41 6 6 9 14 6 18 -4 3 -18 -12 -32
-34z"/>
<path d="M6050 1235 c-7 -8 -20 -15 -30 -15 -10 0 -22 -6 -27 -12 -10 -12 -24
-58 -19 -58 2 0 18 15 38 33 19 17 43 37 53 43 12 6 15 13 8 17 -6 4 -16 0
-23 -8z"/>
<path d="M7980 1109 c0 -5 5 -7 10 -4 6 3 10 8 10 11 0 2 -4 4 -10 4 -5 0 -10
-5 -10 -11z"/>
<path d="M8006 1105 c-2 -7 2 -19 10 -25 8 -7 14 -10 14 -7 0 3 3 12 6 20 3 8
-1 17 -10 20 -8 3 -17 0 -20 -8z"/>
<path d="M5905 1090 c3 -5 8 -10 11 -10 2 0 4 5 4 10 0 6 -5 10 -11 10 -5 0
-7 -4 -4 -10z"/>
<path d="M5765 980 c-8 -13 35 -13 55 0 11 7 7 10 -17 10 -17 0 -35 -4 -38
-10z"/>
<path d="M5475 880 c-4 -12 -5 -24 -2 -27 3 -2 8 5 12 17 4 12 5 24 2 27 -3 2
-8 -5 -12 -17z"/>
<path d="M1778 4273 c7 -3 16 -2 19 1 4 3 -2 6 -13 5 -11 0 -14 -3 -6 -6z"/>
<path d="M1540 2324 c-6 -15 -8 -29 -6 -31 8 -8 23 6 29 27 8 31 -12 35 -23 4z"/>
<path d="M1998 2124 c-8 -13 11 -74 22 -74 6 0 8 12 4 28 -9 37 -20 56 -26 46z"/>
<path d="M2040 2026 c0 -8 4 -17 9 -20 5 -4 7 3 4 14 -6 23 -13 26 -13 6z"/>
<path d="M3100 1541 c0 -10 30 -24 37 -17 3 2 -5 9 -16 16 -12 6 -21 7 -21 1z"/>
<path d="M2490 1520 c0 -5 5 -10 11 -10 5 0 7 5 4 10 -3 6 -8 10 -11 10 -2 0
-4 -4 -4 -10z"/>
<path d="M6546 3716 c-3 -13 -8 -30 -11 -38 -7 -19 30 -21 46 -2 9 11 9 21 1
39 -15 32 -28 32 -36 1z"/>
<path d="M5105 2730 c3 -5 8 -10 11 -10 2 0 4 5 4 10 0 6 -5 10 -11 10 -5 0
-7 -4 -4 -10z"/>
<path d="M6289 2783 c-13 -16 -12 -17 4 -4 16 13 21 21 13 21 -2 0 -10 -8 -17
-17z"/>
<path d="M9075 1150 c-3 -5 -1 -10 4 -10 6 0 11 5 11 10 0 6 -2 10 -4 10 -3 0
-8 -4 -11 -10z"/>
<path d="M9012 639 c-23 -23 -40 -45 -37 -49 5 -8 -51 -66 -90 -94 -11 -8 -17
-18 -13 -21 4 -4 23 5 43 21 19 16 51 42 70 57 19 16 53 51 76 78 39 46 40 49
17 49 -14 0 -40 -17 -66 -41z"/>
<path d="M8560 543 c0 -8 5 -11 10 -8 6 3 10 1 10 -5 0 -6 5 -8 12 -4 6 4 17
-1 24 -11 17 -23 42 -13 42 18 0 22 -5 24 -49 24 -37 1 -49 -3 -49 -14z"/>
<path d="M8530 539 c0 -5 5 -7 10 -4 6 3 10 8 10 11 0 2 -4 4 -10 4 -5 0 -10
-5 -10 -11z"/>
<path d="M8733 355 c-3 -9 -3 -19 1 -22 8 -9 37 18 30 28 -8 14 -24 11 -31 -6z"/>
<path d="M6570 673 c-53 -7 -58 -21 -7 -21 29 1 48 6 51 15 3 7 2 12 -2 11 -4
0 -23 -3 -42 -5z"/>
<path d="M6571 581 c-8 -6 -9 -11 -3 -15 6 -3 14 -1 17 5 9 14 2 20 -14 10z"/>
<path d="M5896 401 c-12 -13 -14 -21 -6 -26 14 -8 15 -7 24 23 9 27 4 28 -18
3z"/>
<path d="M6010 399 c0 -5 5 -7 10 -4 6 3 10 8 10 11 0 2 -4 4 -10 4 -5 0 -10
-5 -10 -11z"/>
<path d="M3940 819 c0 -5 5 -7 10 -4 6 3 10 8 10 11 0 2 -4 4 -10 4 -5 0 -10
-5 -10 -11z"/>
<path d="M2043 10227 c0 -7 8 -13 18 -13 13 0 15 3 7 13 -6 7 -14 13 -18 13
-3 0 -7 -6 -7 -13z"/>
<path d="M2240 10231 c0 -5 7 -12 16 -15 14 -5 15 -4 4 9 -14 17 -20 19 -20 6z"/>
<path d="M2329 10128 c-6 -13 -4 -46 2 -42 5 3 9 -1 9 -9 0 -8 7 -17 15 -21
20 -7 19 1 -5 31 -11 14 -17 29 -14 34 3 5 3 9 0 9 -3 0 -7 -1 -7 -2z"/>
<path d="M2390 10006 c0 -8 4 -17 9 -20 5 -4 7 3 4 14 -6 23 -13 26 -13 6z"/>
<path d="M2410 9735 c0 -2 7 -8 15 -15 12 -10 15 -10 15 2 0 8 -7 15 -15 15
-8 0 -15 -1 -15 -2z"/>
<path d="M6860 9370 c0 -5 7 -7 15 -4 8 4 15 8 15 10 0 2 -7 4 -15 4 -8 0 -15
-4 -15 -10z"/>
<path d="M4554 298 c-9 -14 -2 -16 26 -8 25 6 25 6 3 12 -13 3 -26 2 -29 -4z"/>
<path d="M4275 240 c-3 -5 -3 -15 0 -20 7 -12 45 5 45 20 0 13 -37 13 -45 0z"/>
<path d="M7226 224 c-8 -22 -8 -64 2 -64 17 1 27 17 28 48 1 34 -19 45 -30 16z"/>
<path d="M4315 210 c-3 -5 -1 -10 4 -10 6 0 11 5 11 10 0 6 -2 10 -4 10 -3 0
-8 -4 -11 -10z"/>
<path d="M7302 190 c0 -14 2 -19 5 -12 2 6 2 18 0 25 -3 6 -5 1 -5 -13z"/>
<path d="M6738 183 c7 -3 16 -2 19 1 4 3 -2 6 -13 5 -11 0 -14 -3 -6 -6z"/>
<path d="M6515 170 c-3 -5 -1 -10 4 -10 6 0 11 5 11 10 0 6 -2 10 -4 10 -3 0
-8 -4 -11 -10z"/>
<path d="M4767 133 c-4 -3 -7 -17 -7 -30 0 -26 -27 -32 -37 -8 -4 12 -9 10
-19 -11 -8 -14 -14 -34 -14 -43 0 -9 -6 -23 -12 -29 -10 -10 8 -12 85 -11 105
2 110 5 83 57 -18 35 -70 84 -79 75z"/>
<path d="M6635 62 c4 -15 -2 -22 -27 -30 l-33 -12 39 5 c43 5 73 26 62 44 -4
6 -16 11 -27 11 -15 0 -19 -5 -14 -18z"/>
<path d="M4880 10 c0 -5 5 -10 11 -10 5 0 7 5 4 10 -3 6 -8 10 -11 10 -2 0 -4
-4 -4 -10z"/>
</g>
</svg>
