<?xml version="1.0" standalone="no"?>
<!DOCTYPE svg PUBLIC "-//W3C//DTD SVG 20010904//EN"
 "http://www.w3.org/TR/2001/REC-SVG-20010904/DTD/svg10.dtd">
<svg version="1.0" xmlns="http://www.w3.org/2000/svg"
 width="640.000000pt" height="640.000000pt" viewBox="0 0 640.000000 640.000000"
 preserveAspectRatio="xMidYMid meet">

<g transform="translate(0.000000,640.000000) scale(0.100000,-0.100000)"
fill="#000000" stroke="none">
<path d="M3005 5980 c-640 -46 -1187 -272 -1668 -688 -466 -403 -802 -999
-906 -1603 -90 -526 -37 -1054 156 -1533 95 -236 257 -514 419 -716 187 -233
508 -509 754 -649 342 -195 642 -298 1050 -363 115 -18 602 -18 725 0 224 33
489 99 610 152 11 4 56 23 100 40 469 188 931 561 1224 990 243 355 389 719
461 1152 30 176 38 541 16 735 -38 346 -122 631 -278 945 -267 538 -703 975
-1248 1248 -434 218 -949 323 -1415 290z m510 -86 c1019 -124 1890 -830 2231
-1807 277 -797 166 -1687 -300 -2388 -229 -346 -541 -643 -896 -853 -81 -48
-305 -154 -411 -194 -245 -94 -440 -138 -734 -167 -189 -19 -270 -19 -468 0
-553 53 -1039 250 -1474 596 -133 106 -339 317 -444 455 -402 525 -597 1159
-559 1819 22 377 109 703 280 1050 429 866 1296 1446 2255 1505 151 10 365 3
520 -16z"/>
<path d="M3425 5730 c-10 -16 5 -28 40 -32 23 -2 30 -8 28 -23 -8 -82 -26
-211 -29 -215 -3 -2 -20 -3 -39 -2 -26 2 -35 -1 -35 -12 0 -16 8 -19 108 -33
62 -9 90 -4 78 15 -3 5 -19 12 -36 15 -34 7 -35 9 -20 124 17 128 16 125 54
118 22 -5 36 -2 41 5 11 18 -12 28 -85 35 -36 4 -72 9 -82 11 -9 3 -19 0 -23
-6z"/>
<path d="M3032 5578 c3 -136 5 -153 21 -156 15 -3 17 7 17 109 0 84 3 110 11
102 7 -7 35 -56 64 -110 38 -72 57 -98 71 -98 18 0 19 10 22 153 2 148 2 152
-18 152 -20 0 -21 -5 -19 -106 1 -58 -1 -107 -4 -110 -3 -3 -31 44 -63 105
-48 94 -61 111 -81 111 l-24 0 3 -152z"/>
<path d="M2721 5699 c-30 -5 -57 -12 -60 -14 -6 -6 39 -288 48 -297 6 -7 180
17 189 27 3 3 1 10 -5 16 -8 8 -30 8 -78 0 -37 -7 -69 -10 -71 -8 -5 5 -23
101 -19 105 1 1 30 8 64 14 40 8 61 16 61 25 0 11 -15 14 -67 11 l-67 -3 -7
40 c-4 22 -6 41 -5 42 0 1 32 8 70 15 129 26 82 49 -53 27z"/>
<path d="M3810 5618 c4 -18 13 -53 19 -77 l13 -44 -63 -63 c-47 -48 -60 -67
-52 -75 9 -9 26 2 67 41 l56 52 9 -25 c5 -14 13 -41 16 -60 9 -45 30 -76 43
-62 7 7 4 37 -9 89 l-20 79 57 58 c46 46 56 61 46 71 -10 10 -23 1 -62 -37
-42 -41 -52 -47 -60 -35 -5 8 -10 22 -10 30 0 41 -22 90 -39 90 -16 0 -18 -5
-11 -32z"/>
<path d="M2339 5605 c-77 -42 -56 -227 32 -279 79 -47 168 8 169 103 0 56 -22
112 -61 153 -30 32 -42 38 -75 38 -21 -1 -51 -7 -65 -15z m106 -48 c57 -57 72
-151 30 -192 -28 -29 -36 -30 -74 -10 -72 37 -97 211 -32 228 34 9 44 6 76
-26z"/>
<path d="M2074 5497 c-3 -8 4 -33 15 -56 12 -22 21 -46 21 -54 0 -12 -78 -57
-100 -57 -5 0 -21 23 -35 50 -23 45 -46 62 -58 42 -9 -14 127 -267 146 -270
24 -5 22 18 -8 69 -14 24 -25 51 -25 59 0 15 73 60 98 60 7 0 24 -25 39 -55
28 -56 50 -75 59 -50 7 16 -118 267 -135 273 -6 2 -14 -3 -17 -11z"/>
<path d="M4478 5295 c-41 -28 -88 -113 -88 -159 0 -65 63 -126 128 -126 25 0
35 9 61 48 17 27 31 54 31 60 0 17 -70 56 -81 45 -6 -6 -2 -16 11 -28 26 -23
25 -33 -3 -69 -21 -26 -26 -28 -48 -16 -34 17 -59 51 -59 79 0 35 37 107 67
131 40 31 99 27 131 -10 43 -48 70 -36 36 16 -38 57 -124 71 -186 29z"/>
<path d="M1702 5290 c-35 -14 -112 -72 -112 -83 0 -10 158 -235 170 -242 3 -2
12 0 20 5 12 7 8 17 -18 54 -18 24 -32 47 -32 51 0 4 20 25 45 47 39 34 45 45
45 78 0 67 -61 113 -118 90z m70 -61 c18 -24 19 -29 5 -55 -8 -16 -28 -37 -45
-46 l-29 -17 -32 43 c-17 25 -31 48 -31 53 0 16 65 52 89 50 13 -1 33 -14 43
-28z"/>
<path d="M2975 5294 c-379 -41 -718 -169 -1035 -392 -129 -90 -375 -337 -469
-469 -205 -290 -334 -609 -383 -948 -19 -134 -16 -495 5 -620 101 -583 414
-1077 892 -1407 345 -238 763 -368 1184 -368 118 0 335 19 396 35 11 2 61 14
110 26 159 37 279 81 445 163 880 440 1335 1434 1096 2397 -159 642 -633 1188
-1241 1432 -130 52 -249 89 -360 111 -44 9 -102 21 -130 27 -51 11 -437 21
-510 13z m465 -78 c439 -56 851 -259 1173 -580 300 -297 498 -679 573 -1101
22 -121 30 -446 15 -572 -84 -690 -497 -1280 -1112 -1588 -186 -93 -373 -153
-609 -196 -115 -21 -518 -18 -638 4 -217 41 -400 101 -577 189 -559 278 -960
803 -1090 1428 -36 171 -46 488 -21 660 109 759 593 1369 1303 1643 116 45
319 96 443 112 133 18 404 18 540 1z"/>
<path d="M2505 4899 c-33 -11 -114 -46 -180 -79 -379 -187 -608 -480 -691
-887 -25 -121 -26 -139 -20 -338 3 -115 8 -225 12 -244 9 -44 -9 -34 -36 19
-74 146 -63 562 25 890 8 30 15 64 15 75 l-1 20 -15 -20 c-25 -32 -99 -193
-122 -265 -58 -184 -73 -277 -73 -460 0 -210 33 -393 106 -581 47 -123 49
-129 37 -129 -30 0 -150 208 -213 369 -21 53 -41 94 -46 91 -4 -3 -8 -79 -7
-170 0 -186 15 -266 79 -432 119 -308 387 -624 755 -887 54 -39 88 -57 94 -51
16 16 37 12 71 -14 21 -16 36 -21 46 -16 7 5 25 7 39 5 25 -5 25 -4 -2 7 -15
7 -26 19 -25 29 1 13 5 15 18 8 24 -12 32 -11 23 3 -4 7 -3 8 4 4 7 -4 12 -14
12 -23 0 -12 6 -14 27 -8 16 4 29 8 31 10 2 2 -2 30 -9 62 -9 38 -14 129 -14
268 1 234 13 318 81 543 34 113 118 327 135 346 21 23 4 48 -74 109 -188 147
-312 330 -363 537 -27 108 -25 382 3 493 11 42 17 77 12 77 -10 0 -90 -121
-121 -185 -115 -230 -118 -518 -8 -786 16 -41 30 -78 30 -84 0 -17 -66 87
-109 172 -195 383 -152 769 128 1140 73 96 237 257 344 337 100 76 100 78 2
45z m-65 -3055 c0 -8 -4 -12 -10 -9 -5 3 -10 10 -10 16 0 5 5 9 10 9 6 0 10
-7 10 -16z m-110 -24 c0 -5 -4 -10 -10 -10 -5 0 -10 5 -10 10 0 6 5 10 10 10
6 0 10 -4 10 -10z"/>
<path d="M3786 4902 c12 -9 56 -43 98 -76 42 -32 124 -109 184 -170 377 -389
470 -836 262 -1257 -42 -86 -109 -193 -116 -187 -2 3 10 38 27 79 106 256 106
538 0 764 -43 92 -116 205 -132 205 -7 0 -8 -7 -4 -17 3 -10 16 -61 27 -113
27 -126 21 -346 -12 -459 -76 -266 -246 -471 -505 -611 -53 -29 -99 -50 -102
-47 -3 3 9 61 26 127 77 303 10 523 -202 658 -34 22 -87 48 -117 58 -30 10
-57 19 -59 21 -2 1 27 35 64 74 112 120 155 244 125 370 -15 62 -48 133 -80
169 l-22 25 7 -25 c3 -14 13 -52 21 -85 20 -72 15 -196 -11 -270 -18 -54 -83
-156 -104 -163 -10 -3 -9 3 2 24 27 53 51 214 29 189 -5 -6 -17 -30 -26 -55
-23 -58 -59 -106 -96 -125 -41 -21 -50 -19 -50 15 l0 29 -43 -42 c-24 -23 -82
-61 -129 -84 -96 -47 -168 -112 -185 -167 -9 -31 -6 -69 19 -226 17 -105 34
-190 38 -190 4 0 15 20 24 43 22 59 76 119 119 135 32 12 42 11 80 -6 51 -23
77 -68 77 -134 0 -54 -22 -102 -97 -214 -158 -236 -259 -447 -320 -669 -24
-89 -27 -118 -27 -255 -1 -135 2 -165 23 -230 12 -41 29 -82 37 -91 8 -8 14
-20 14 -25 0 -5 16 -33 34 -62 30 -46 35 -51 41 -33 8 26 25 27 25 2 0 -10 9
-21 20 -24 11 -3 20 -13 20 -22 0 -9 -4 -14 -9 -11 -5 4 -7 -3 -4 -14 8 -28
23 -35 23 -11 0 12 7 21 15 21 8 0 15 -9 15 -20 0 -11 7 -20 15 -20 8 0 15 -5
15 -11 0 -7 11 -9 31 -5 28 5 29 5 13 -11 -20 -21 -1 -32 21 -13 13 11 15 9
13 -11 -2 -18 1 -23 15 -21 19 3 21 -6 8 -26 -6 -11 -11 -10 -25 3 -9 10 -20
15 -23 11 -4 -3 -4 -7 -2 -9 38 -29 106 -67 120 -67 9 0 19 -4 21 -8 4 -11
103 -52 125 -52 10 0 40 26 67 58 103 123 269 251 415 318 98 46 201 78 211
68 17 -17 -37 -191 -91 -295 -11 -23 -18 -43 -15 -46 3 -3 36 12 73 32 37 21
82 45 98 53 60 31 268 172 372 254 188 147 393 361 513 538 106 156 194 369
225 545 17 96 22 335 7 361 -6 11 -18 -9 -42 -73 -46 -123 -119 -267 -174
-340 -52 -71 -75 -82 -50 -25 35 79 95 262 115 348 15 65 22 139 26 274 6 205
-5 303 -52 465 -39 134 -136 347 -151 332 -3 -3 9 -72 25 -153 43 -208 61
-356 61 -510 0 -177 -30 -317 -76 -355 -16 -13 -17 -11 -11 21 30 168 27 418
-7 590 -88 441 -371 762 -833 944 -101 39 -130 45 -97 18z m-1072 -3043 c-8
-14 -24 -10 -24 6 0 9 6 12 15 9 8 -4 12 -10 9 -15z m130 -98 c-6 -6 -24 19
-24 34 1 6 7 1 15 -9 8 -11 12 -22 9 -25z m156 -115 c0 -3 -4 -8 -10 -11 -5
-3 -10 -1 -10 4 0 6 5 11 10 11 6 0 10 -2 10 -4z m5 -56 c-3 -5 -13 -10 -21
-10 -8 0 -12 5 -9 10 3 6 13 10 21 10 8 0 12 -4 9 -10z m25 -30 c0 -5 -2 -10
-4 -10 -3 0 -8 5 -11 10 -3 6 -1 10 4 10 6 0 11 -4 11 -10z"/>
<path d="M2260 1785 c13 -14 31 -25 39 -25 11 0 6 8 -14 25 -39 32 -55 32 -25
0z"/>
<path d="M2730 1770 c0 -5 5 -10 11 -10 5 0 7 5 4 10 -3 6 -8 10 -11 10 -2 0
-4 -4 -4 -10z"/>
<path d="M2335 1740 c4 -6 11 -8 16 -5 14 9 11 15 -7 15 -8 0 -12 -5 -9 -10z"/>
<path d="M4813 5116 c-4 -8 -29 -37 -55 -64 -59 -62 -98 -119 -98 -144 0 -32
29 -77 60 -93 58 -30 78 -22 172 74 82 83 106 121 76 121 -7 0 -49 -38 -93
-85 -87 -92 -116 -104 -155 -65 -37 37 -26 62 83 184 55 61 64 86 32 86 -8 0
-18 -6 -22 -14z"/>
<path d="M5113 4844 c-3 -8 2 -23 11 -33 9 -10 16 -22 16 -27 0 -11 -114 -108
-155 -134 -22 -13 -26 -12 -50 10 -19 18 -28 21 -37 12 -10 -10 -2 -22 104
-146 5 -6 12 -6 20 2 9 9 8 16 -4 29 -8 10 -18 23 -21 29 -7 13 155 154 177
154 8 0 22 -10 30 -21 9 -14 21 -19 31 -15 14 5 12 11 -14 44 -18 20 -42 52
-54 69 -26 39 -46 48 -54 27z"/>
<path d="M1118 4744 c-24 -31 -47 -63 -53 -71 -11 -17 8 -36 144 -139 69 -52
87 -62 98 -52 23 19 103 125 103 137 0 28 -23 16 -62 -34 -23 -30 -50 -55 -58
-55 -8 1 -30 14 -49 30 l-33 28 36 48 c20 26 36 51 36 55 0 22 -31 5 -60 -31
-17 -22 -36 -40 -42 -40 -13 0 -68 39 -68 49 0 4 18 32 40 61 43 58 48 70 25
70 -8 0 -34 -25 -57 -56z"/>
<path d="M5235 4448 c-66 -39 -122 -73 -125 -75 -4 -4 54 -117 77 -149 7 -9
19 -14 27 -11 13 5 10 16 -19 64 -19 32 -35 63 -35 69 0 7 51 42 114 79 80 46
113 71 109 81 -3 8 -10 14 -17 14 -6 0 -65 -32 -131 -72z"/>
<path d="M920 4456 c0 -8 23 -27 50 -42 28 -15 50 -32 50 -37 0 -19 -51 -97
-63 -97 -7 0 -32 11 -55 25 -44 25 -62 25 -62 0 0 -17 248 -155 267 -148 23 9
10 26 -45 58 -28 16 -54 33 -57 37 -5 5 31 80 52 107 1 2 30 -11 64 -29 41
-22 64 -29 71 -22 17 17 3 28 -121 96 -120 67 -151 77 -151 52z"/>
<path d="M5435 4161 c-172 -71 -167 -68 -160 -93 39 -129 125 -171 234 -115
59 30 86 68 86 121 0 52 -32 126 -54 125 -9 -1 -56 -18 -106 -38z m115 -30
c28 -54 2 -112 -64 -142 -61 -28 -102 -25 -137 11 -43 42 -36 67 26 92 28 11
68 29 90 39 52 23 72 23 85 0z"/>
<path d="M752 4143 c-23 -42 -78 -200 -74 -211 7 -23 23 -11 42 33 11 25 21
45 24 45 3 0 60 -20 127 -45 118 -43 138 -45 139 -14 0 3 -53 25 -117 49 -65
24 -122 47 -127 51 -6 5 -4 25 3 50 14 46 1 77 -17 42z"/>
<path d="M713 3250 c-31 -12 -63 -68 -63 -107 0 -22 10 -43 29 -65 26 -29 36
-33 79 -33 39 0 56 5 76 24 88 82 -9 226 -121 181z"/>
<path d="M5529 3246 c-15 -9 -34 -32 -44 -52 -24 -50 -8 -107 38 -134 78 -48
166 -1 167 87 0 83 -91 138 -161 99z"/>
<path d="M818 2486 c-41 -18 -86 -65 -93 -97 -6 -27 15 -119 33 -147 7 -10 38
-2 143 38 74 28 137 55 142 59 13 13 -23 97 -55 130 -27 28 -36 31 -87 30 -31
0 -68 -6 -83 -13z m153 -55 c50 -50 42 -62 -77 -110 -71 -30 -109 -40 -115
-34 -6 6 -13 29 -16 52 -5 35 -2 46 18 68 55 60 143 71 190 24z"/>
<path d="M5313 2414 c-8 -21 -2 -25 125 -74 62 -24 115 -47 118 -51 3 -5 -2
-22 -11 -38 -8 -17 -15 -37 -15 -46 0 -21 29 -19 37 3 3 9 21 55 39 102 19 46
34 90 34 97 0 26 -28 12 -40 -19 -26 -64 -7 -66 -233 23 -42 17 -48 17 -54 3z"/>
<path d="M1080 2214 c0 -4 16 -35 35 -69 40 -72 43 -64 -60 -120 -131 -72
-148 -85 -134 -101 10 -12 20 -10 68 17 31 18 72 41 91 52 87 48 120 69 119
75 -2 22 -88 147 -102 150 -9 2 -17 0 -17 -4z"/>
<path d="M5206 2193 c-16 -16 -2 -34 49 -62 30 -17 55 -36 55 -42 0 -16 -51
-99 -61 -99 -5 0 -31 14 -57 30 -55 34 -67 36 -75 16 -4 -10 15 -28 58 -55 36
-23 67 -41 69 -41 3 0 32 -16 65 -36 57 -34 81 -37 81 -11 0 7 -23 25 -50 40
-28 16 -50 32 -50 36 0 10 58 101 65 101 4 0 26 -12 51 -26 41 -24 74 -27 74
-5 0 5 -37 30 -82 56 -46 27 -99 58 -118 70 -44 27 -66 35 -74 28z"/>
<path d="M1280 1897 c0 -7 7 -22 15 -33 8 -10 15 -22 15 -26 0 -3 -41 -39 -91
-79 l-91 -72 -24 26 c-28 30 -44 34 -44 12 0 -22 99 -145 116 -145 20 0 17 17
-6 48 -11 14 -17 28 -13 32 4 4 47 37 95 74 l88 67 24 -25 c26 -29 49 -34 44
-11 -2 8 -25 44 -53 80 -48 61 -75 80 -75 52z"/>
<path d="M4955 1803 c-56 -68 -61 -78 -47 -87 11 -7 23 3 66 57 21 26 43 47
48 47 14 0 78 -51 78 -62 0 -5 -16 -29 -35 -52 -40 -50 -42 -56 -16 -56 12 0
32 17 48 40 15 22 33 40 38 40 6 0 24 -11 40 -24 28 -23 29 -26 15 -49 -8 -14
-28 -42 -44 -62 -18 -21 -25 -40 -20 -45 5 -5 14 -6 19 -2 11 8 98 111 108
129 8 12 -208 193 -230 193 -7 0 -37 -30 -68 -67z"/>
<path d="M1475 1601 c-48 -30 -178 -168 -171 -180 13 -21 30 -10 102 68 79 84
112 101 149 77 51 -34 40 -70 -56 -170 -46 -49 -69 -81 -65 -91 3 -8 10 -15
15 -15 14 0 143 145 164 184 16 31 17 37 3 70 -15 35 -66 76 -96 76 -8 0 -28
-9 -45 -19z"/>
<path d="M1725 1363 c-19 -27 -35 -53 -35 -60 0 -17 70 -57 81 -46 6 6 2 16
-11 28 -25 22 -25 34 -1 63 25 29 52 28 86 -5 23 -24 26 -34 22 -70 -8 -78
-88 -151 -148 -136 -29 7 -59 32 -59 48 0 19 -30 27 -36 11 -15 -40 56 -96
121 -96 108 0 199 144 149 237 -19 36 -77 73 -114 73 -12 0 -33 -18 -55 -47z"/>
<path d="M4515 1390 c-3 -5 8 -31 26 -56 l31 -46 -51 -47 c-60 -56 -67 -91
-25 -140 37 -44 82 -42 154 5 30 21 57 39 59 40 8 7 -163 254 -175 254 -7 0
-16 -4 -19 -10z m99 -165 c53 -82 51 -72 14 -95 -40 -24 -75 -26 -100 -3 -28
25 -22 57 17 92 43 37 48 38 69 6z"/>
<path d="M4225 1208 c-3 -7 6 -37 20 -66 14 -28 25 -56 25 -62 0 -12 -73 -50
-97 -50 -12 0 -27 18 -43 53 -15 31 -33 53 -44 55 -15 3 -18 0 -13 -20 12 -48
119 -258 131 -258 25 0 25 13 0 68 -13 30 -23 56 -22 57 13 11 90 45 102 45 9
0 26 -21 38 -47 24 -50 55 -66 51 -26 -4 31 -116 256 -131 261 -7 2 -14 -2
-17 -10z"/>
<path d="M2380 1084 c0 -8 7 -47 16 -86 l16 -72 -61 -59 c-33 -32 -61 -61 -61
-63 0 -2 10 -4 23 -4 14 0 39 16 62 40 21 22 42 40 46 40 3 0 12 -27 18 -61
11 -54 31 -82 47 -66 3 3 -2 38 -10 78 l-16 74 67 65 c59 58 63 65 43 68 -16
3 -36 -10 -71 -44 -27 -26 -50 -46 -52 -43 -2 2 -9 31 -16 64 -13 60 -26 85
-42 85 -5 0 -9 -7 -9 -16z"/>
<path d="M3818 1064 c-110 -59 -47 -304 78 -304 101 0 144 109 89 225 -40 84
-104 114 -167 79z m101 -53 c47 -51 65 -146 35 -189 -21 -31 -74 -30 -106 3
-48 48 -62 145 -27 189 27 35 64 34 98 -3z"/>
<path d="M3475 986 c-50 -8 -70 -15 -70 -26 0 -9 8 -14 20 -13 11 1 45 5 76 9
53 6 56 5 62 -17 4 -13 7 -38 7 -55 0 -27 -4 -32 -31 -38 -17 -3 -42 -6 -55
-6 -26 0 -41 -17 -27 -31 6 -6 29 -5 59 0 57 11 74 -1 74 -54 0 -31 -1 -32
-70 -44 -69 -13 -90 -23 -70 -36 16 -10 181 15 186 29 2 6 -6 74 -19 151 -25
161 -16 152 -142 131z"/>
<path d="M2710 976 c0 -11 9 -16 29 -16 17 0 32 -3 34 -7 3 -5 -2 -59 -11
-120 l-16 -113 -38 0 c-20 0 -39 -4 -43 -9 -10 -17 33 -31 116 -38 68 -5 81
-4 77 8 -2 8 -19 15 -36 17 -37 4 -39 14 -22 122 19 122 18 119 57 122 20 2
38 8 40 14 5 14 -21 21 -114 30 -64 6 -73 4 -73 -10z"/>
<path d="M3060 805 c0 -128 3 -155 14 -155 22 0 28 32 25 128 -2 48 1 88 5 90
4 1 32 -47 62 -108 47 -97 57 -111 77 -108 22 3 22 5 22 153 0 134 -2 150 -18
153 -15 3 -17 -7 -17 -102 0 -65 -4 -106 -10 -106 -6 0 -34 47 -62 105 -44 87
-56 105 -75 105 -23 0 -23 0 -23 -155z"/>
</g>
</svg>
